<svg width="30" height="30" viewBox="0 0 30 30" fill="none" xmlns="http://www.w3.org/2000/svg">
<g clip-path="url(#clip0_130_592)">
<path d="M22.059 12.5738V1.54419H9.48574V7.63264H0V28.4411H9.48574V28.4557H30V12.5734H22.059V12.5738ZM6.25318 27.5591V22.5554H4.11523V27.5591H0.882604V8.51482H9.48574V27.5591H6.25318ZM29.1175 27.5735H17.941V18.6765H14.1174V27.5735H10.3678V7.63264V2.42685H21.1763V13.4564H29.1175V27.5735ZM11.5112 4.55875H13.3497V8.64752H11.5112V4.55875ZM15.034 4.55875H16.8718V8.64752H15.034V4.55875ZM18.4226 4.55875H20.2613V8.64752H18.4226V4.55875ZM11.5112 10.8378H13.3497V15.3679H11.5112V10.8378ZM15.034 10.8378H16.8718V15.3679H15.034V10.8378ZM18.4226 10.8378H20.2613V15.3679H18.4226V10.8378ZM23.5329 19.6402H21.695V15.4411H23.5329V19.6402ZM23.5329 26.3604H21.695V22.0512H23.5329V26.3604ZM27.3927 19.6402H25.5549V15.4411H27.3927V19.6402ZM27.3927 26.3604H25.5549V22.0512H27.3927V26.3604ZM2.33494 9.98169H4.17286V14.1805H2.33494V9.98169ZM2.33494 16.5913H4.17286V20.9004H2.33494V16.5913ZM6.19494 9.98169H8.03279V14.1805H6.19494V9.98169ZM6.19494 16.5913H8.03279V20.9004H6.19494V16.5913Z" fill="#253D8A"/>
</g>
<defs>
<clipPath id="clip0_130_592">
<rect width="30" height="30" fill="white"/>
</clipPath>
</defs>
</svg>
