<svg width="30" height="30" viewBox="0 0 30 30" fill="none" xmlns="http://www.w3.org/2000/svg">
<path d="M27.347 8.29594C27.2457 7.965 27.1351 7.63969 27.0198 7.3125C26.896 6.96094 26.8041 6.59906 26.656 6.25594C26.6129 6.15375 26.5623 6.05719 26.5079 5.95969C26.3691 5.70937 26.1479 5.53219 25.9145 5.37375C25.8076 5.3025 25.6857 5.26969 25.562 5.26969C25.3032 5.26969 25.0398 5.41313 24.9104 5.63625C24.9001 5.65406 24.901 5.67187 24.8916 5.68969C24.7126 5.89031 24.5204 6.07875 24.3291 6.26719C24.1079 6.48469 23.9007 6.7125 23.6907 6.93844C23.2745 7.38656 22.8432 7.83094 22.3726 8.22281C22.3079 8.20875 22.2441 8.19281 22.1804 8.17219C22.1345 8.14594 22.0904 8.11781 22.0473 8.08594C21.9057 7.96688 21.7791 7.83563 21.6516 7.69969C21.5082 7.545 21.3516 7.40625 21.2129 7.24781C21.1998 7.22813 21.1857 7.20844 21.1726 7.18969C21.2823 7.05656 21.3966 6.92625 21.512 6.79688C21.6479 6.64594 21.7679 6.48 21.9001 6.32531C22.3923 5.74969 22.9688 5.24531 23.4938 4.70062C23.6635 4.52437 23.731 4.29 23.7132 4.06125C23.7179 4.05469 23.7245 4.05094 23.7291 4.04344C23.9363 3.69 23.8163 3.21375 23.4582 3.01031C23.2126 2.86969 22.9688 2.72344 22.7185 2.59125C22.4832 2.47125 22.2366 2.36719 21.991 2.26969C21.7576 2.17781 21.5054 2.115 21.2616 2.05219C20.9663 1.97531 20.6598 1.94062 20.3551 1.91625C20.1413 1.89937 19.9229 1.875 19.7063 1.875C19.6332 1.875 19.561 1.87781 19.4888 1.88437C19.0866 1.92281 18.6713 1.95937 18.2776 2.06156C17.9457 2.14875 17.641 2.31563 17.3448 2.48813C17.0213 2.6775 16.7026 2.87625 16.4016 3.10031C16.3416 3.14437 16.2835 3.18937 16.2254 3.23531C16.2563 3.21187 16.2873 3.18844 16.3173 3.165C15.9938 3.41344 15.6788 3.66562 15.392 3.95625C15.0976 4.25719 14.8163 4.59656 14.5763 4.9425C14.3654 5.24531 14.1713 5.55 14.0026 5.87813C13.832 6.21281 13.6876 6.54 13.6229 6.90937C13.5582 7.29375 13.4888 7.67625 13.4438 8.06438C13.397 8.47312 13.4354 8.87719 13.5048 9.28219C13.546 9.52594 13.6435 9.76031 13.712 9.99938C13.801 10.3228 13.9398 10.6209 14.102 10.9125C14.1638 11.025 14.2463 11.1187 14.3251 11.2162C13.8638 11.685 13.4035 12.1537 12.9338 12.6141C12.4013 13.1362 11.8566 13.6453 11.3195 14.1609C10.7701 14.6859 10.1935 15.1838 9.64414 15.7097C9.13601 16.1972 8.63539 16.6931 8.13008 17.1872C7.6032 17.7038 7.08476 18.2278 6.59351 18.7809C6.10601 19.3275 5.62414 19.875 5.16289 20.4422C4.74664 20.9569 4.34539 21.4828 3.93101 21.9994C3.74164 22.2337 3.55133 22.4672 3.37976 22.7166C3.21945 22.9425 3.09758 23.19 2.95883 23.43C2.79664 23.7103 2.64008 23.9831 2.5257 24.2878C2.41976 24.5709 2.39164 24.8831 2.41789 25.1822C2.45258 25.5666 2.51539 25.92 2.72258 26.2556C2.87258 26.4975 3.06664 26.6728 3.27945 26.8556C3.51289 27.0572 3.73695 27.2597 4.00883 27.4144C4.19633 27.5203 4.40164 27.6019 4.60039 27.6872C4.8582 27.8006 5.11226 27.9253 5.37476 28.0247C5.42726 28.0453 5.4807 28.0631 5.53695 28.0781C5.76851 28.1409 5.97758 28.1334 6.21008 28.0978C6.39476 28.0697 6.57195 28.0266 6.74633 27.9581C6.9207 27.8906 7.08945 27.8184 7.24601 27.7181C7.44101 27.5925 7.6182 27.4416 7.79727 27.2934C8.05508 27.0806 8.29976 26.8566 8.53883 26.6231C9.03664 26.1375 9.52226 25.6388 10.0126 25.1437C10.261 24.8953 10.517 24.6553 10.7766 24.4144C11.0391 24.1706 11.2895 23.91 11.5426 23.6559C12.0507 23.1459 12.5626 22.635 13.051 22.1072C13.5395 21.5784 14.0166 21.0356 14.4816 20.4834C14.7151 20.2069 14.9532 19.935 15.1913 19.6641C15.437 19.3866 15.6395 19.0809 15.8616 18.7856C16.0754 18.5194 16.2976 18.2606 16.5048 17.9906C16.6538 17.7956 16.7851 17.5894 16.9285 17.3916C17.0963 17.1863 17.2773 16.9903 17.4395 16.7775C17.5979 16.5703 17.7507 16.3584 17.9073 16.1494C18.0226 15.9966 18.1266 15.8381 18.2241 15.6712C18.226 15.6684 18.2279 15.6656 18.2298 15.6619C18.2673 15.6853 18.3001 15.7153 18.3404 15.735C18.6376 15.8831 18.9751 16.0153 19.2976 16.0988C19.651 16.1925 20.0354 16.2356 20.3991 16.2009C20.7732 16.1644 21.1491 16.1091 21.5157 16.0284C22.1016 15.9 22.7026 15.8541 23.2679 15.6403C24.0057 15.3638 24.6601 14.9203 25.2235 14.3719C25.486 14.1178 25.7279 13.8431 25.9773 13.575C26.2454 13.2862 26.4873 12.9731 26.7132 12.6497C26.9363 12.3328 27.106 11.9681 27.2495 11.6091C27.376 11.2875 27.4651 10.9528 27.5279 10.6134C27.6666 9.84938 27.571 9.03656 27.347 8.29594ZM22.1382 8.15906C22.1204 8.145 22.1026 8.13094 22.0848 8.11781C22.0829 8.11594 22.0801 8.11406 22.0782 8.11219C22.0979 8.12812 22.1185 8.14406 22.1382 8.15906ZM22.0135 8.0625C22.0088 8.05969 22.0051 8.05594 22.0004 8.05313C22.0182 8.06719 22.037 8.08125 22.0548 8.09437C22.0585 8.09719 22.0623 8.1 22.066 8.10281C22.0295 8.07469 21.9938 8.0475 21.9573 8.01937C21.976 8.03437 21.9948 8.04844 22.0135 8.0625ZM26.1113 10.1859C26.0532 10.5197 25.9716 10.8506 25.8526 11.1675C25.7729 11.3428 25.6941 11.5191 25.5995 11.6869C25.4982 11.865 25.3801 12.0319 25.2582 12.1969C25.0257 12.4856 24.7745 12.7594 24.526 13.0369C24.2663 13.3266 23.9879 13.5966 23.686 13.8403C23.4488 14.0128 23.1957 14.16 22.9285 14.2828C22.3191 14.5237 21.6601 14.6334 21.0104 14.7244C20.687 14.7638 20.3588 14.7834 20.0326 14.7544C19.8441 14.7197 19.6632 14.6691 19.4841 14.5978C19.3351 14.5331 19.1851 14.4647 19.0491 14.3784C18.9929 14.3259 18.9385 14.2706 18.8851 14.2125C18.7754 14.0944 18.6451 13.9894 18.5073 13.9078C18.1388 13.6866 17.6448 13.8225 17.4282 14.1909C17.3907 14.2547 17.3785 14.3231 17.3607 14.3897C17.3363 14.4291 17.3054 14.4628 17.2895 14.5078C17.2416 14.5847 17.1845 14.6559 17.1329 14.7291C17.0654 14.8228 17.0045 14.9203 16.9435 15.0178C16.8273 15.2044 16.7176 15.3863 16.5835 15.5625C16.5948 15.5484 16.606 15.5334 16.6173 15.5194C16.5798 15.5681 16.5413 15.6169 16.5038 15.6656C16.5188 15.6469 16.5338 15.6281 16.5488 15.6094C16.4485 15.7397 16.3491 15.8709 16.2498 16.0022C16.0763 16.2178 15.8832 16.4175 15.7285 16.6472C15.6657 16.7409 15.617 16.8422 15.5541 16.9359C15.5026 17.0138 15.4463 17.0897 15.3901 17.1656C15.226 17.3737 15.0563 17.5763 14.8895 17.7797C14.6907 18.0263 14.5098 18.2841 14.3232 18.5391C14.1076 18.7978 13.8732 19.0406 13.6548 19.2966C13.4251 19.5647 13.1954 19.8328 12.962 20.0972C12.482 20.6381 11.9823 21.1622 11.4704 21.6731C10.9501 22.1897 10.4438 22.7184 9.93101 23.2425C9.68726 23.49 9.43695 23.7309 9.18664 23.9738C8.93258 24.2194 8.69258 24.4762 8.44226 24.7266C8.17133 24.9966 7.88351 25.2525 7.6032 25.5131C7.35101 25.7513 7.08195 25.965 6.80914 26.1769C6.66289 26.2866 6.51383 26.3906 6.34976 26.4731C6.23445 26.5144 6.1182 26.5462 5.9982 26.5697C5.97289 26.5716 5.94758 26.5725 5.92226 26.5725C5.76383 26.5341 5.61195 26.4769 5.46101 26.4122C5.52195 26.4384 5.58289 26.4647 5.64383 26.49C5.38226 26.3794 5.1132 26.2875 4.84883 26.1825C4.72883 26.1281 4.61164 26.0681 4.50101 25.9969C4.41289 25.92 4.32945 25.8366 4.23758 25.7616C4.13351 25.6744 4.02945 25.5938 3.93758 25.4963C3.91133 25.4559 3.88695 25.4147 3.86445 25.3716C3.84851 25.3219 3.83539 25.2722 3.82508 25.2206C3.81476 25.1128 3.81008 25.0041 3.81476 24.8962C3.8307 24.825 3.85039 24.7556 3.87383 24.6863C4.00601 24.4041 4.1757 24.1378 4.32851 23.8669C4.49914 23.5659 4.69226 23.2875 4.90226 23.0147C4.89383 23.0259 4.88445 23.0372 4.87601 23.0484C5.29976 22.4953 5.71133 21.9347 6.13508 21.3806C6.56539 20.8331 7.02101 20.3063 7.4907 19.7906C7.73633 19.5206 7.97445 19.2478 8.22852 18.9853C8.49101 18.7153 8.76289 18.4566 9.03383 18.1941C9.54383 17.7 10.0463 17.1975 10.5507 16.6997C11.0776 16.1812 11.642 15.7031 12.1848 15.1997C12.752 14.6737 13.3276 14.1591 13.9023 13.6388C14.5613 13.0434 15.2035 12.4331 15.8335 11.8031C15.8466 11.79 15.8513 11.7722 15.8626 11.7581C15.8738 11.7478 15.8888 11.7441 15.9001 11.7337C16.2198 11.4141 16.187 10.9331 15.9001 10.6078C15.7857 10.4794 15.6648 10.3566 15.5504 10.2272C15.467 10.0978 15.3985 9.95625 15.3329 9.81656C15.2823 9.66937 15.2448 9.51656 15.1998 9.36656C15.1501 9.19313 15.0938 9.02344 15.0591 8.84719C15.0273 8.49563 15.0432 8.14219 15.0863 7.79063C15.1332 7.44375 15.1726 7.09687 15.2926 6.76687C15.4904 6.33938 15.7285 5.93438 16.0098 5.55563C16.186 5.33625 16.3698 5.12344 16.5638 4.91531C16.7391 4.72781 16.936 4.56094 17.1376 4.40062C17.5454 4.095 17.9879 3.80625 18.452 3.5925C18.632 3.53062 18.8157 3.48656 19.0041 3.45469C19.3032 3.42094 19.6004 3.39469 19.9013 3.41344C20.1376 3.4275 20.3776 3.44438 20.6129 3.4725C20.9935 3.5325 21.3788 3.62812 21.7379 3.76969C21.8326 3.81375 21.9198 3.86719 22.0107 3.91687C21.2541 4.70344 20.4816 5.4825 19.816 6.34781C19.7082 6.4875 19.6473 6.62156 19.5807 6.78938C19.4485 7.12687 19.5235 7.5075 19.711 7.8075C19.8976 8.10469 20.1376 8.37094 20.3963 8.60438C20.567 8.75719 20.7048 8.94187 20.882 9.08437C21.0123 9.18844 21.1463 9.28969 21.2804 9.39094C21.4313 9.50719 21.6095 9.58219 21.7932 9.63281C21.9798 9.68531 22.1813 9.70594 22.3707 9.72375C22.832 9.76875 23.2145 9.45938 23.5313 9.17438C23.8266 8.91 24.1107 8.62781 24.3948 8.34938C24.6657 8.085 24.9235 7.80844 25.1982 7.54781C25.2966 7.45594 25.397 7.365 25.4973 7.27406C25.5198 7.35375 25.5432 7.4325 25.5685 7.51125C25.6313 7.71469 25.7045 7.91625 25.7673 8.12062C25.8863 8.49844 26.011 8.88562 26.0776 9.2775C26.1113 9.57937 26.1348 9.88406 26.1113 10.1859ZM6.61039 24.6684C6.61039 25.0809 6.26633 25.425 5.85383 25.425C5.44133 25.425 5.09726 25.08 5.09726 24.6684C5.09726 24.2559 5.44133 23.9119 5.85383 23.9119C6.26633 23.9119 6.61039 24.2559 6.61039 24.6684Z" fill="#253D8A"/>
</svg>
