<svg width="30" height="30" viewBox="0 0 30 30" fill="none" xmlns="http://www.w3.org/2000/svg">
<path d="M16.0605 3.43942C15.7792 3.15822 15.3977 3.00024 15 3.00024C14.6023 3.00024 14.2208 3.15822 13.9395 3.43942L3.4395 13.9394C3.16626 14.2223 3.01507 14.6012 3.01849 14.9945C3.02191 15.3878 3.17966 15.764 3.45777 16.0422C3.73588 16.3203 4.1121 16.478 4.5054 16.4814C4.89869 16.4849 5.2776 16.3337 5.5605 16.0604L6 15.6209V25.4999C6 25.8977 6.15804 26.2793 6.43934 26.5606C6.72065 26.8419 7.10218 26.9999 7.5 26.9999H10.5C10.8978 26.9999 11.2794 26.8419 11.5607 26.5606C11.842 26.2793 12 25.8977 12 25.4999V22.4999C12 22.1021 12.158 21.7206 12.4393 21.4393C12.7206 21.158 13.1022 20.9999 13.5 20.9999H16.5C16.8978 20.9999 17.2794 21.158 17.5607 21.4393C17.842 21.7206 18 22.1021 18 22.4999V25.4999C18 25.8977 18.158 26.2793 18.4393 26.5606C18.7206 26.8419 19.1022 26.9999 19.5 26.9999H22.5C22.8978 26.9999 23.2794 26.8419 23.5607 26.5606C23.842 26.2793 24 25.8977 24 25.4999V15.6209L24.4395 16.0604C24.7224 16.3337 25.1013 16.4849 25.4946 16.4814C25.8879 16.478 26.2641 16.3203 26.5422 16.0422C26.8203 15.764 26.9781 15.3878 26.9815 14.9945C26.9849 14.6012 26.8337 14.2223 26.5605 13.9394L16.0605 3.43942Z" fill="#253D8A"/>
</svg>
