<svg width="30" height="30" viewBox="0 0 30 30" fill="none" xmlns="http://www.w3.org/2000/svg">
<g clip-path="url(#clip0_220_63)">
<path d="M3.81525 30C3.73423 30 3.65391 29.9774 3.58391 29.9339C3.48539 29.8724 3.4154 29.7746 3.38915 29.6614L0.206794 15.9662C0.152022 15.7308 0.298488 15.4958 0.533849 15.4411L1.71135 15.1676L15.1316 3.92379L14.3556 3.22173C14.0906 3.38517 13.779 3.47931 13.4456 3.47931C12.4863 3.47931 11.706 2.69886 11.706 1.73974C11.706 0.780628 12.4863 0 13.4456 0C14.4049 0 15.1852 0.780453 15.1852 1.73957C15.1852 2.0486 15.1042 2.33908 14.9624 2.59072L15.8088 3.3563L16.0043 3.19251C16.1621 3.06004 16.391 3.05584 16.5539 3.18236L25.0026 9.75513L26.0856 9.5035C26.3213 9.44942 26.556 9.59537 26.6108 9.83073L29.7933 23.5259C29.8481 23.7613 29.7016 23.9963 29.4662 24.0511L3.91429 29.9888C3.88157 29.9963 3.84832 30 3.81525 30ZM1.15804 16.1944L4.1423 29.0376L28.8419 23.2979L25.8574 10.4549L25.0037 10.6534C24.9998 10.6544 24.9958 10.6553 24.9918 10.6562L2.02213 15.9935C2.01496 15.9954 2.00778 15.9972 2.00043 15.9986L1.15804 16.1944ZM15.7868 4.5163L3.59651 14.7296L23.9053 10.0103L16.8318 4.50755C16.8252 4.60187 16.7881 4.69479 16.7198 4.77038C16.558 4.94957 16.2813 4.96357 16.102 4.80153L15.7868 4.5163ZM13.4456 0.874947C12.9688 0.874947 12.581 1.2629 12.581 1.73957C12.581 2.21624 12.9689 2.60419 13.4456 2.60419C13.6838 2.60419 13.8999 2.50725 14.0565 2.35098C14.0611 2.34626 14.0656 2.34136 14.0703 2.33681C14.2189 2.18142 14.3104 1.97091 14.3104 1.73957C14.3102 1.2629 13.9225 0.874947 13.4456 0.874947ZM7.04433 24.6359C6.84572 24.6359 6.666 24.4997 6.61875 24.298L5.4906 19.4851C5.43548 19.2499 5.58142 19.0145 5.81678 18.9594C5.96184 18.9254 6.10708 18.9678 6.20998 19.0607C6.41979 18.8572 6.6814 18.7137 6.97328 18.6453C7.39833 18.5457 7.8372 18.6173 8.20836 18.8476C8.57951 19.0777 8.83884 19.4387 8.93859 19.8641C9.14437 20.7418 8.59753 21.6236 7.71979 21.8292C7.65224 21.8451 7.58452 21.8565 7.51715 21.8635L9.74739 23.2466C9.95265 23.3742 10.0158 23.6439 9.8886 23.8489C9.76121 24.0544 9.49173 24.1172 9.28629 23.9903L7.13235 22.6543L7.47078 24.0981C7.5259 24.3333 7.37978 24.5687 7.1446 24.6238C7.111 24.632 7.0774 24.6359 7.04433 24.6359ZM7.34811 19.4768C7.28984 19.4768 7.23122 19.4837 7.17312 19.4971C6.97538 19.5437 6.80757 19.6641 6.70047 19.8366C6.59338 20.0092 6.55996 20.213 6.60633 20.4108C6.70187 20.8187 7.1117 21.0719 7.52012 20.9775C7.9282 20.8817 8.18246 20.4718 8.08674 20.0636C8.04037 19.8658 7.9198 19.698 7.74726 19.5911C7.62547 19.5157 7.4881 19.4768 7.34811 19.4768ZM11.8728 23.2764C11.6742 23.2764 11.4945 23.1402 11.4472 22.9385L10.9277 20.7221C10.9272 20.7201 10.9268 20.7184 10.9263 20.7163C10.9259 20.7144 10.9254 20.7126 10.9251 20.7105L10.3756 18.3664C10.3756 18.366 10.3754 18.3655 10.3752 18.365C10.3201 18.1298 10.4662 17.8944 10.7014 17.8393L13.2991 17.2305C13.5342 17.1754 13.7697 17.3215 13.8248 17.5565C13.8799 17.7915 13.7338 18.0271 13.4986 18.0822L11.3268 18.5912L11.6784 20.0905L12.9842 19.7845C13.2194 19.7292 13.4549 19.8755 13.51 20.1105C13.5651 20.3457 13.4192 20.581 13.184 20.6361L11.8781 20.9424L12.1992 22.3127L14.3711 21.8038C14.6061 21.7487 14.8417 21.8948 14.8968 22.1299C14.9519 22.3649 14.8058 22.6004 14.5706 22.6555L11.9741 23.2643C11.9738 23.2643 11.9733 23.2645 11.9729 23.2645C11.9395 23.2724 11.9059 23.2764 11.8728 23.2764ZM16.3597 22.2245C16.1611 22.2245 15.9814 22.0884 15.9341 21.8866L14.8622 17.3131C14.8238 17.1498 14.8825 16.9867 15.0006 16.8835C15.1631 16.7083 15.437 16.6954 15.6148 16.8564L18.9104 19.8349L18.1392 16.5449C18.0841 16.3097 18.23 16.0743 18.4652 16.0192C18.7007 15.9641 18.9359 16.1102 18.991 16.3452L20.063 20.9188C20.1012 21.0815 20.0429 21.2444 19.9255 21.3475C19.7633 21.524 19.4889 21.537 19.3104 21.3757L16.015 18.3975L16.786 21.6871C16.8411 21.9223 16.6952 22.1577 16.4598 22.2128C16.4264 22.2205 16.3928 22.2245 16.3597 22.2245ZM23.0905 20.6468C22.8919 20.6468 22.7122 20.5107 22.6649 20.3089L21.6927 16.1613L20.48 16.4455C20.2448 16.5003 20.0093 16.3545 19.9543 16.1195C19.8992 15.8843 20.0452 15.6489 20.2805 15.5938L23.5575 14.8256C23.7927 14.7703 24.0281 14.9166 24.0832 15.1516C24.1383 15.3868 23.9924 15.6222 23.757 15.6773L22.5445 15.9617L23.5168 20.1093C23.5719 20.3444 23.426 20.5798 23.1908 20.6349C23.1572 20.643 23.1236 20.6468 23.0905 20.6468Z" fill="#253D8A"/>
</g>
<defs>
<clipPath id="clip0_220_63">
<rect width="30" height="30" fill="white"/>
</clipPath>
</defs>
</svg>
