<svg width="30" height="30" viewBox="0 0 30 30" fill="none" xmlns="http://www.w3.org/2000/svg">
<g clip-path="url(#clip0_182_49)">
<path d="M9.55444 9.1587C9.55444 10.6333 10.131 12.3352 11.0966 13.7114C12.1929 15.2737 13.5791 16.1341 14.9998 16.1341C16.4205 16.1341 17.8066 15.2737 18.9029 13.7114C19.8686 12.3352 20.4451 10.6333 20.4451 9.1587C20.4451 6.15612 18.0024 3.71338 14.9998 3.71338C11.9972 3.71338 9.55444 6.15612 9.55444 9.1587ZM14.9998 4.65905C17.4809 4.65905 19.4995 6.67763 19.4995 9.1587C19.4995 10.427 18.9743 11.9634 18.1289 13.1682C17.228 14.4521 16.0875 15.1884 14.9998 15.1884C13.9122 15.1884 12.7717 14.4521 11.8708 13.1682C11.0253 11.9634 10.5001 10.4271 10.5001 9.1587C10.5001 6.67756 12.5187 4.65905 14.9998 4.65905Z" fill="#253D8A"/>
<path d="M19.0629 15.0781C18.8825 14.9922 18.6674 15.0291 18.5258 15.1703C17.4682 16.2249 16.2488 16.7823 14.9994 16.7823C13.7497 16.7823 12.5306 16.2249 11.4737 15.1704C11.3321 15.0291 11.1169 14.9922 10.9365 15.0781C9.34435 15.8361 7.99682 17.0218 7.03961 18.507C6.05636 20.0327 5.53662 21.8028 5.53662 23.626V23.6336C5.53662 23.767 5.59298 23.8942 5.69177 23.9839C8.24459 26.299 11.55 27.574 14.9993 27.574C18.4485 27.574 21.754 26.2989 24.3067 23.9839C24.4056 23.8942 24.462 23.7671 24.462 23.6336V23.626C24.462 21.8028 23.9423 20.0327 22.9593 18.5071C22.0024 17.0217 20.655 15.836 19.0629 15.0781ZM14.9994 26.6283C11.8559 26.6283 8.84087 25.492 6.48475 23.4239C6.52151 21.8543 6.98634 20.3356 7.83461 19.0193C8.63787 17.7729 9.74626 16.7608 11.0536 16.0766C12.2354 17.1583 13.5933 17.7279 14.9994 17.7279C16.4053 17.7279 17.7634 17.1583 18.9459 16.0766C20.2531 16.7608 21.3613 17.7729 22.1645 19.0193C23.0126 20.3355 23.4773 21.8543 23.5141 23.4239C21.1579 25.492 18.1428 26.6283 14.9994 26.6283Z" fill="#253D8A"/>
<path d="M28.6903 15.376C27.8563 14.0815 26.682 13.0482 25.2945 12.3877C25.1141 12.3018 24.8989 12.3387 24.7573 12.4798C23.855 13.3795 22.8162 13.8552 21.753 13.8552C21.1766 13.8552 20.6066 13.7161 20.0588 13.442C19.8252 13.3252 19.5413 13.4198 19.4244 13.6533C19.3075 13.8869 19.4021 14.1709 19.6356 14.2877C20.3161 14.6282 21.0285 14.8008 21.7531 14.8008C22.972 14.8008 24.149 14.313 25.1756 13.3863C26.2792 13.9725 27.215 14.8322 27.8955 15.8882C28.617 17.0081 29.0149 18.2993 29.0516 19.6341C27.8837 20.6528 26.4949 21.4277 25.0224 21.8806C24.7728 21.9574 24.6326 22.222 24.7094 22.4716C24.772 22.6749 24.9591 22.8056 25.1612 22.8056C25.2072 22.8056 25.2541 22.7988 25.3004 22.7846C26.9717 22.2705 28.5431 21.3748 29.8448 20.1942C29.9437 20.1045 30 19.9774 30 19.8439V19.8373C30 18.2483 29.5471 16.7056 28.6903 15.376Z" fill="#253D8A"/>
<path d="M8.22686 13.2691C8.72681 13.2691 9.22556 13.1471 9.70943 12.9067C9.94326 12.7905 10.0387 12.5067 9.92246 12.2728C9.80627 12.0389 9.52244 11.9436 9.2886 12.0598C8.93669 12.2347 8.57947 12.3233 8.22686 12.3233C7.31013 12.3233 6.34586 11.6983 5.58125 10.6085C4.85944 9.57974 4.41101 8.26879 4.41101 7.18731C4.41101 5.08319 6.1228 3.37139 8.22686 3.37139C9.21995 3.37139 10.1605 3.75105 10.8751 4.44051C11.063 4.62176 11.3624 4.61653 11.5437 4.42853C11.725 4.24059 11.7196 3.94126 11.5317 3.76C10.6398 2.89963 9.46614 2.42578 8.22686 2.42578C5.60129 2.42578 3.46533 4.56181 3.46533 7.18738C3.46533 8.47223 3.96698 9.95423 4.80712 11.1517C5.76509 12.5171 6.97958 13.2691 8.22686 13.2691Z" fill="#253D8A"/>
<path d="M3.84789 21.4443C2.79169 20.989 1.81727 20.3743 0.948511 19.6158C0.985203 18.2847 1.38195 16.9975 2.10167 15.8808C2.78009 14.8281 3.71316 13.9709 4.81323 13.3863C5.83702 14.3107 7.01072 14.797 8.22642 14.797C8.95692 14.797 9.6745 14.6215 10.3592 14.2752C10.5922 14.1573 10.6855 13.8729 10.5677 13.6398C10.4499 13.4068 10.1654 13.3135 9.93235 13.4313C9.38121 13.71 8.80725 13.8514 8.22642 13.8514C7.16657 13.8514 6.13093 13.3771 5.23153 12.4799C5.08993 12.3387 4.87482 12.3018 4.69433 12.3877C3.31024 13.0466 2.13886 14.0773 1.30673 15.3685C0.451843 16.695 0 18.2339 0 19.8189V19.8254C0 19.9588 0.0563622 20.0861 0.155154 20.1757C1.14048 21.0693 2.25695 21.7883 3.47346 22.3128C3.53449 22.339 3.59798 22.3515 3.66045 22.3515C3.84353 22.3515 4.01779 22.2445 4.0949 22.0657C4.19823 21.8259 4.08765 21.5477 3.84789 21.4443Z" fill="#253D8A"/>
<path d="M4.40403 22.1287C4.23563 22.5349 4.68975 22.9377 5.07338 22.7205C5.27752 22.6049 5.36862 22.3462 5.27682 22.1288C5.12507 21.7414 4.5595 21.7536 4.40403 22.1287Z" fill="#253D8A"/>
<path d="M5.27666 22.129C5.26527 22.1 5.28868 22.1574 5.27666 22.129V22.129Z" fill="#253D8A"/>
<path d="M19.1244 4.44051C19.8391 3.75105 20.7796 3.37139 21.7727 3.37139C23.8767 3.37139 25.5885 5.08319 25.5885 7.18731C25.5885 8.26879 25.1401 9.57968 24.4182 10.6085C23.6536 11.6983 22.6893 12.3233 21.7726 12.3233C21.42 12.3233 21.0628 12.2347 20.7109 12.0598C20.4769 11.9436 20.1931 12.0389 20.0769 12.2728C19.9607 12.5067 20.0561 12.7904 20.29 12.9067C20.7738 13.1471 21.2726 13.2691 21.7726 13.2691C23.0198 13.2691 24.2344 12.5171 25.1923 11.1517C26.0325 9.95423 26.5341 8.47223 26.5341 7.18738C26.5341 4.56181 24.3981 2.42578 21.7726 2.42578C20.5333 2.42578 19.3597 2.89963 18.4678 3.76C18.2798 3.94126 18.2745 4.24066 18.4558 4.42853C18.637 4.61647 18.9364 4.62183 19.1244 4.44051Z" fill="#253D8A"/>
</g>
<defs>
<clipPath id="clip0_182_49">
<rect width="30" height="30" fill="white"/>
</clipPath>
</defs>
</svg>
