<svg width="30" height="30" viewBox="0 0 30 30" fill="none" xmlns="http://www.w3.org/2000/svg">
<path d="M29.718 4.88647C29.6809 4.8741 15.1915 0.0463612 15.1915 0.0463612C15.0617 -0.0154537 14.9381 -0.0154537 14.8083 0.0463612L0.473387 4.76284C0.114861 4.91119 0.0283203 5.22027 0.0283203 5.39953V24.7661C0.0283203 25.0876 0.219946 25.341 0.473387 25.4028L14.629 29.9277C14.8453 30.008 15.0802 30.0389 15.377 29.9277L29.5264 25.4028C29.7798 25.273 29.9715 25.0196 29.9715 24.7661V5.39953C29.9715 5.2079 29.9096 5.01628 29.718 4.88647ZM14.9999 1.38156L27.2949 5.33153L22.6526 6.82127L10.5369 2.83421L14.9999 1.38156ZM14.3632 28.4565L1.30171 24.3149V6.30203L14.3632 10.4807V28.4565ZM14.9999 9.28151L2.7049 5.39953L8.49696 3.50799L20.5694 7.49506L14.9999 9.28151ZM15.6366 28.4565V10.4313L22.1333 8.37283V10.3694L23.4067 9.82548V7.97103L28.6919 6.30203V24.2531H28.6981L15.6366 28.4565Z" fill="#E6E6E6"/>
</svg>
