<svg width="46" height="45" viewBox="0 0 46 45" fill="none" xmlns="http://www.w3.org/2000/svg">
<path d="M33.5885 18.4564V0.0737305H14.7286V10.2211H0.5V44.9019H14.7286V44.9262H45.5V18.4557H33.5885V18.4564ZM9.87976 43.4319V35.0924H6.67284V43.4319H1.82391V11.6914H14.7286V43.4319H9.87976ZM44.1763 43.4559H27.4115V28.6276H21.6761V43.4559H16.0517V10.2211V1.54484H32.2644V19.9274H44.1763V43.4559ZM17.7668 5.098H20.5246V11.9126H17.7668V5.098ZM23.051 5.098H25.8078V11.9126H23.051V5.098ZM28.1339 5.098H30.8919V11.9126H28.1339V5.098ZM17.7668 15.5631H20.5246V23.1132H17.7668V15.5631ZM23.051 15.5631H25.8078V23.1132H23.051V15.5631ZM28.1339 15.5631H30.8919V23.1132H28.1339V15.5631ZM35.7994 30.2338H33.0425V23.2352H35.7994V30.2338ZM35.7994 41.4341H33.0425V34.2521H35.7994V41.4341ZM41.5891 30.2338H38.8323V23.2352H41.5891V30.2338ZM41.5891 41.4341H38.8323V34.2521H41.5891V41.4341ZM4.00242 14.1362H6.75929V21.1343H4.00242V14.1362ZM4.00242 25.1522H6.75929V32.3341H4.00242V25.1522ZM9.79241 14.1362H12.5492V21.1343H9.79241V14.1362ZM9.79241 25.1522H12.5492V32.3341H9.79241V25.1522Z" fill="#007BFF"/>
</svg>
