<svg width="26" height="25" viewBox="0 0 26 25" fill="none" xmlns="http://www.w3.org/2000/svg">
<g clip-path="url(#clip0_150_218)">
<path d="M20.3522 2.99521H16.4607C16.2666 1.3119 14.8344 0 13.0999 0C11.3654 0 9.93339 1.31185 9.73927 2.99521H5.84761C4.27277 2.99521 2.9917 4.27664 2.9917 5.85143V5.99798C2.9917 7.20142 3.74103 8.23147 4.79663 8.65117V22.1438C4.79663 23.7186 6.07785 25 7.65259 25H18.5473C20.122 25 21.4032 23.7185 21.4032 22.1438V8.65122C22.4587 8.23147 23.2081 7.20142 23.2081 5.99803V5.85148C23.2081 4.27664 21.9269 2.99521 20.3522 2.99521ZM13.0999 1.35455C14.0864 1.35455 14.9098 2.06165 15.092 2.99521H11.1081C11.2902 2.0616 12.1137 1.35455 13.0999 1.35455ZM20.0486 22.1438C20.0486 22.9718 19.3749 23.6455 18.5472 23.6455H7.65254C6.8248 23.6455 6.15113 22.9717 6.15113 22.1438V8.8542H20.0486V22.1438ZM21.8535 5.99798C21.8535 6.82598 21.1799 7.49971 20.3521 7.49971H5.84761C5.01987 7.49971 4.3462 6.82598 4.3462 5.99798V5.85143C4.3462 5.02343 5.01987 4.34971 5.84761 4.34971H20.3522C21.1799 4.34971 21.8536 5.02343 21.8536 5.85143L21.8535 5.99798Z" fill="#FF3B30"/>
<path d="M9.46875 21.9133C9.8428 21.9133 10.146 21.61 10.146 21.2361V13.6104C10.146 13.2365 9.84275 12.9331 9.46875 12.9331C9.09476 12.9331 8.7915 13.2365 8.7915 13.6104V21.2361C8.79145 21.6101 9.09471 21.9133 9.46875 21.9133Z" fill="#FF3B30"/>
<path d="M13.0999 21.9133C13.4739 21.9133 13.7772 21.61 13.7772 21.2361V13.6104C13.7772 13.2365 13.4738 12.9331 13.0999 12.9331C12.7259 12.9331 12.4226 13.2365 12.4226 13.6104V21.2361C12.4226 21.6101 12.7258 21.9133 13.0999 21.9133Z" fill="#FF3B30"/>
<path d="M16.731 21.9133C17.105 21.9133 17.4082 21.61 17.4082 21.2361V13.6104C17.4082 13.2365 17.105 12.9331 16.731 12.9331C16.3569 12.9331 16.0537 13.2365 16.0537 13.6104V21.2361C16.0537 21.6101 16.357 21.9133 16.731 21.9133Z" fill="#FF3B30"/>
</g>
<defs>
<clipPath id="clip0_150_218">
<rect width="25" height="25" fill="white" transform="translate(0.599854)"/>
</clipPath>
</defs>
</svg>
