<svg width="26" height="25" viewBox="0 0 26 25" fill="none" xmlns="http://www.w3.org/2000/svg">
<path fill-rule="evenodd" clip-rule="evenodd" d="M10.7287 4.26709C10.7287 4.26709 8.70996 4.27022 6.83887 4.27334C4.46855 4.27803 2.5498 6.20069 2.5498 8.57022V18.7499C2.5498 19.8897 3.00215 20.9827 3.8084 21.7882C4.61387 22.5944 5.70684 23.0468 6.84668 23.0468H17.0053C19.3787 23.0468 21.3021 21.1233 21.3021 18.7499C21.3021 16.871 21.3021 14.8405 21.3021 14.8405C21.3021 14.1937 20.7771 13.6687 20.1303 13.6687C19.4842 13.6687 18.9584 14.1937 18.9584 14.8405V18.7499C18.9584 19.8288 18.0842 20.703 17.0053 20.703H6.84668C6.32871 20.703 5.83184 20.4976 5.46543 20.1312C5.09902 19.7647 4.89355 19.2679 4.89355 18.7499V8.57022C4.89355 7.49287 5.76621 6.61944 6.84355 6.61709C8.71387 6.61397 10.7334 6.61084 10.7334 6.61084C11.3803 6.60928 11.9037 6.0835 11.9029 5.43662C11.9021 4.78975 11.3756 4.26553 10.7287 4.26709Z" fill="#007AFF"/>
<path fill-rule="evenodd" clip-rule="evenodd" d="M16.2609 5.00864L10.9132 10.3571C10.8062 10.4641 10.732 10.6 10.7015 10.7485L9.85698 14.7735C9.80307 15.0305 9.88198 15.2977 10.0664 15.4836C10.2515 15.6704 10.5171 15.7516 10.7749 15.7L14.8328 14.8891C14.9835 14.8586 15.1226 14.7844 15.232 14.675L20.5796 9.32739L16.2609 5.00864ZM17.3664 3.90396L21.6843 8.22271L22.5531 7.35474C23.7453 6.16177 23.7453 4.22896 22.5531 3.03677C22.5523 3.03677 22.5523 3.03599 22.5523 3.03599C21.3593 1.8438 19.4265 1.8438 18.2343 3.03599L17.3664 3.90396Z" fill="#007AFF"/>
</svg>
