<svg width="30" height="30" viewBox="0 0 30 30" fill="none" xmlns="http://www.w3.org/2000/svg">
<g clip-path="url(#clip0_194_107)">
<path d="M26.3356 4.81689H3.66443C1.64396 4.81689 0 6.46085 0 8.48133V21.519C0 23.5395 1.64396 25.1835 3.66443 25.1835H26.3356C28.356 25.1835 30 23.5395 30 21.519V8.48173C30.0004 6.46085 28.3564 4.81689 26.3356 4.81689ZM24.545 7.20752L15 13.357L5.45502 7.20752H24.545ZM26.3356 22.7932H3.66443C2.96199 22.7932 2.39063 22.2215 2.39063 21.5194V8.54946L14.2625 16.1835C14.2784 16.1935 14.2956 16.2003 14.3119 16.2094C14.329 16.219 14.3466 16.2282 14.3641 16.2369C14.4561 16.2843 14.551 16.3226 14.6478 16.3477C14.6577 16.3505 14.6677 16.3517 14.6777 16.3541C14.784 16.3792 14.8916 16.3947 14.9992 16.3947H15C15.0008 16.3947 15.0016 16.3947 15.0016 16.3947C15.1092 16.3947 15.2167 16.3796 15.3231 16.3541C15.3331 16.3517 15.3431 16.3505 15.353 16.3477C15.4498 16.3226 15.5443 16.2843 15.6367 16.2369C15.6542 16.2282 15.6718 16.219 15.6889 16.2094C15.7052 16.2003 15.7224 16.1935 15.7383 16.1835L27.6102 8.54946V21.519C27.6098 22.2215 27.038 22.7932 26.3356 22.7932Z" fill="#B0B0B0"/>
</g>
<defs>
<clipPath id="clip0_194_107">
<rect width="30" height="30" fill="white"/>
</clipPath>
</defs>
</svg>
