<svg width="30" height="30" viewBox="0 0 30 30" fill="none" xmlns="http://www.w3.org/2000/svg">
<path d="M15.7256 1.29883L12.4492 6.24895L14.1904 6.46768C13.6502 8.23311 13.5403 9.44881 13.6698 11.8653C14.4982 11.7347 15.1674 11.6881 16.0479 11.9468C15.4691 9.78818 15.5297 9.05066 15.7619 6.68693L17.6734 6.82035L15.7256 1.29883ZM28.5273 1.42832L22.1781 3.18789L23.4036 4.70986C20.5025 6.52738 18.6967 7.96463 17.2664 11.9265C18.0399 11.9176 18.9128 12.0977 19.8548 12.4541C20.1904 9.83693 21.8317 7.99275 24.5014 6.07217L25.6722 7.52623L28.5273 1.42832ZM1.36475 1.56367L5.22484 7.56865L6.34305 5.88637C8.42629 7.78715 9.74998 10.3588 9.70094 12.1811C10.7889 11.6716 11.4545 11.6229 12.6151 11.9597C12.1402 10.1314 10.0618 5.5893 7.24563 4.3951L8.21652 2.86949L1.3648 1.56361L1.36475 1.56367ZM17.5435 14.1418C17.2341 14.1488 16.9452 14.2833 16.5511 14.704L16.1664 15.1123L15.7673 14.7186C15.3344 14.292 14.9929 14.1742 14.6467 14.1895C14.3005 14.2047 13.8934 14.3867 13.4382 14.7552L13.0739 15.05L12.7278 14.7351C12.2063 14.2633 11.7619 14.1234 11.3362 14.1454C11.0264 14.1614 10.7049 14.2782 10.3841 14.4823L12.7844 18.8001C13.6899 19.3538 15.5403 19.5621 16.8128 18.9209L19.1327 14.6234C18.6927 14.444 18.2972 14.26 17.9553 14.1895C17.8316 14.1638 17.7169 14.1452 17.6056 14.1418C17.5849 14.1412 17.564 14.1413 17.5435 14.1418ZM12.2718 19.7778V19.7779C11.2151 20.5245 10.3666 21.8121 10.0379 23.6981C9.71945 25.526 10.2213 26.7606 11.1092 27.6019C11.9972 28.4433 13.33 28.8755 14.6834 28.8579C16.0369 28.8404 17.3867 28.371 18.2942 27.514C19.2019 26.657 19.7151 25.4383 19.424 23.6945C19.123 21.8923 18.3459 20.6389 17.3621 19.8804C15.6932 20.7626 13.6065 20.5751 12.2717 19.7778H12.2718Z" fill="#E6E6E6"/>
</svg>
