<svg width="26" height="25" viewBox="0 0 26 25" fill="none" xmlns="http://www.w3.org/2000/svg">
<g clip-path="url(#clip0_182_318)">
<path d="M2.26001 12.5L3.53931 13.7793C8.81274 19.0527 17.3918 19.0527 22.6653 13.7793L23.9397 12.5L22.6604 11.2207C17.387 5.94727 8.80786 5.94727 3.53442 11.2207L2.26001 12.5ZM13.0999 18.6621C9.39868 18.6621 5.69751 17.251 2.88013 14.4336L1.27368 12.8271C1.09302 12.6465 1.09302 12.3535 1.27368 12.168L2.88013 10.5615C8.51489 4.92676 17.6848 4.92676 23.3196 10.5615L24.926 12.168C25.1067 12.3486 25.1067 12.6416 24.926 12.8271L23.3196 14.4336C20.5022 17.251 16.801 18.6621 13.0999 18.6621Z" fill="#00DC32"/>
<path d="M13.0999 8.95996C11.1467 8.95996 9.55981 10.5469 9.55981 12.5C9.55981 14.4531 11.1467 16.04 13.0999 16.04C15.053 16.04 16.6399 14.4531 16.6399 12.5C16.6399 10.5469 15.053 8.95996 13.0999 8.95996ZM13.0999 16.9678C10.634 16.9678 8.63208 14.9609 8.63208 12.5C8.63208 10.0342 10.6389 8.03223 13.0999 8.03223C15.5608 8.03223 17.5676 10.0391 17.5676 12.5C17.5676 14.9658 15.5657 16.9678 13.0999 16.9678Z" fill="#00DC32"/>
</g>
<defs>
<clipPath id="clip0_182_318">
<rect width="25" height="25" fill="white" transform="translate(0.599854)"/>
</clipPath>
</defs>
</svg>
