<svg width="50" height="51" viewBox="0 0 50 51" fill="none" xmlns="http://www.w3.org/2000/svg">
<path d="M6.35867 50.5C6.22363 50.5 6.08977 50.4624 5.97311 50.3898C5.80891 50.2874 5.69225 50.1244 5.6485 49.9357L0.344575 27.1103C0.253289 26.7181 0.497399 26.3264 0.889667 26.2351L2.85217 25.7793L25.2193 7.03964L23.9258 5.86955C23.4843 6.14195 22.9649 6.29886 22.4093 6.29886C20.8105 6.29886 19.51 4.9981 19.51 3.39957C19.51 1.80105 20.8105 0.5 22.4093 0.5C24.0081 0.5 25.3086 1.80075 25.3086 3.39928C25.3086 3.91433 25.1735 4.39847 24.9373 4.81786L26.348 6.09383L26.6738 5.82084C26.9368 5.60006 27.3183 5.59307 27.5898 5.80393L41.6709 16.7586L43.476 16.3392C43.8688 16.249 44.2599 16.4923 44.3512 16.8845L49.6554 39.7099C49.7467 40.1021 49.5026 40.4938 49.1103 40.5851L6.52374 50.4813C6.4692 50.4939 6.41379 50.5 6.35867 50.5ZM1.92998 27.4906L6.90376 48.8959L48.0697 39.3298L43.0956 17.9249L41.6727 18.2556C41.6663 18.2573 41.6596 18.2588 41.6529 18.2603L3.37014 27.1558C3.35818 27.159 3.34623 27.162 3.33398 27.1643L1.92998 27.4906ZM26.3112 8.02717L5.99411 25.0493L39.842 17.1838L28.053 8.01258C28.0419 8.16978 27.9801 8.32465 27.8663 8.45064C27.5965 8.74929 27.1354 8.77262 26.8365 8.50255L26.3112 8.02717ZM22.4093 1.95824C21.6145 1.95824 20.9682 2.60483 20.9682 3.39928C20.9682 4.19373 21.6148 4.84032 22.4093 4.84032C22.8062 4.84032 23.1664 4.67875 23.4274 4.4183C23.435 4.41043 23.4426 4.40226 23.4505 4.39468C23.6981 4.1357 23.8506 3.78484 23.8506 3.39928C23.8503 2.60483 23.204 1.95824 22.4093 1.95824ZM11.7405 41.5598C11.4094 41.5598 11.1099 41.3329 11.0312 40.9966L9.15091 32.9751C9.05904 32.5831 9.30228 32.1909 9.69455 32.099C9.93633 32.0424 10.1784 32.113 10.3499 32.2679C10.6996 31.9287 11.1356 31.6895 11.6221 31.5755C12.3305 31.4095 13.0619 31.5288 13.6805 31.9126C14.2991 32.2962 14.7313 32.8978 14.8976 33.6068C15.2405 35.0697 14.3291 36.5393 12.8662 36.882C12.7537 36.9086 12.6408 36.9275 12.5285 36.9392L16.2456 39.2444C16.5877 39.457 16.693 39.9064 16.4809 40.2482C16.2686 40.5906 15.8195 40.6953 15.4771 40.4839L11.8872 38.2572L12.4512 40.6636C12.5431 41.0555 12.2996 41.4478 11.9076 41.5397C11.8516 41.5534 11.7956 41.5598 11.7405 41.5598ZM12.2468 32.9614C12.1496 32.9614 12.0519 32.9728 11.9551 32.9952C11.6256 33.0728 11.3459 33.2735 11.1674 33.561C10.9889 33.8486 10.9332 34.1884 11.0105 34.5179C11.1697 35.1978 11.8527 35.6198 12.5335 35.4626C13.2136 35.3028 13.6373 34.6197 13.4778 33.9393C13.4005 33.6097 13.1996 33.33 12.912 33.1518C12.709 33.0261 12.4801 32.9614 12.2468 32.9614ZM19.7879 39.294C19.4569 39.294 19.1574 39.0671 19.0786 38.7308L18.2127 35.0368C18.2119 35.0336 18.2113 35.0307 18.2104 35.0271C18.2098 35.0239 18.2089 35.021 18.2084 35.0175L17.2926 31.1106C17.2926 31.11 17.2923 31.1091 17.292 31.1083C17.2001 30.7163 17.4437 30.324 17.8356 30.2321L22.1652 29.2175C22.5568 29.1256 22.9494 29.3692 23.0413 29.7608C23.1331 30.1525 22.8896 30.5451 22.4976 30.637L18.878 31.4854L19.4639 33.9842L21.6402 33.4741C22.0322 33.382 22.4247 33.6258 22.5166 34.0175C22.6085 34.4094 22.3652 34.8017 21.9733 34.8936L19.7967 35.404L20.3319 37.6879L23.9518 36.8397C24.3435 36.7479 24.736 36.9914 24.8279 37.3831C24.9198 37.7748 24.6763 38.1673 24.2843 38.2592L19.9568 39.2738C19.9562 39.2738 19.9553 39.2741 19.9548 39.2741C19.8991 39.2873 19.8431 39.294 19.7879 39.294ZM27.2661 37.5409C26.9351 37.5409 26.6356 37.314 26.5568 36.9777L24.7702 29.3552C24.7063 29.0831 24.804 28.8112 25.0009 28.6392C25.2718 28.3472 25.7282 28.3256 26.0246 28.594L31.5172 33.5581L30.2319 28.0748C30.14 27.6828 30.3832 27.2906 30.7752 27.1987C31.1678 27.1068 31.5598 27.3504 31.6516 27.7421L33.4383 35.3646C33.5019 35.6358 33.4047 35.9073 33.209 36.0791C32.9387 36.3734 32.4814 36.395 32.1839 36.1261L26.6916 31.1625L27.9766 36.6452C28.0684 37.0372 27.8252 37.4295 27.4329 37.5213C27.3772 37.5342 27.3212 37.5409 27.2661 37.5409ZM38.4841 34.9114C38.1531 34.9114 37.8535 34.6845 37.7748 34.3482L36.1544 27.4355L34.1333 27.9092C33.7413 28.0005 33.3487 27.7575 33.2572 27.3658C33.1653 26.9738 33.4085 26.5816 33.8008 26.4897L39.2625 25.2094C39.6545 25.1172 40.0467 25.361 40.1386 25.7527C40.2305 26.1447 39.9872 26.537 39.595 26.6288L37.5741 27.1028L39.1945 34.0154C39.2864 34.4074 39.0432 34.7997 38.6512 34.8915C38.5952 34.9049 38.5392 34.9114 38.4841 34.9114Z" fill="#28A745"/>
</svg>
