<svg width="30" height="30" viewBox="0 0 30 30" fill="none" xmlns="http://www.w3.org/2000/svg">
<g clip-path="url(#clip0_171_37)">
<path d="M-1.52588e-05 7.40665V22.5933C-1.52588e-05 24.6859 1.7071 26.393 3.7997 26.393H16.0738C18.1664 26.393 19.8735 24.6859 19.8735 22.5933V20.1335C19.8735 19.7175 19.537 19.3809 19.1209 19.3809C18.7049 19.3809 18.3683 19.7175 18.3683 20.1335V22.5933C18.3683 23.8598 17.3343 24.8939 16.0677 24.8939H3.7997C2.53313 24.8939 1.49907 23.8598 1.49907 22.5933V7.40665C1.49907 6.14008 2.53313 5.10602 3.7997 5.10602H16.0738C17.3404 5.10602 18.3745 6.14008 18.3745 7.40665V9.86637C18.3745 10.2824 18.711 10.619 19.1271 10.619C19.5431 10.619 19.8797 10.2824 19.8797 9.86637V7.40665C19.8797 5.31405 18.1725 3.60693 16.0799 3.60693H3.7997C1.7071 3.60693 -1.52588e-05 5.30793 -1.52588e-05 7.40665Z" fill="#E6E6E6"/>
<path d="M23.5815 20.6598C23.7283 20.8066 23.918 20.88 24.1138 20.88C24.3096 20.88 24.4993 20.8066 24.6461 20.6598L29.7797 15.5262C30.0734 15.2325 30.0734 14.7613 29.7797 14.4676L24.6461 9.33404C24.3524 9.04035 23.8813 9.04035 23.5876 9.33404C23.2939 9.62774 23.2939 10.0989 23.5876 10.3926L27.4424 14.2474H13.3755C12.9594 14.2474 12.6229 14.5839 12.6229 15C12.6229 15.416 12.9594 15.7526 13.3755 15.7526H27.4363L23.5815 19.6073C23.2878 19.8949 23.2878 20.3722 23.5815 20.6598Z" fill="#E6E6E6"/>
</g>
<defs>
<clipPath id="clip0_171_37">
<rect width="30" height="30" fill="white"/>
</clipPath>
</defs>
</svg>
