<svg width="30" height="30" viewBox="0 0 30 30" fill="none" xmlns="http://www.w3.org/2000/svg">
<path d="M27.3469 8.29594C27.2456 7.965 27.135 7.63969 27.0197 7.3125C26.8959 6.96094 26.8041 6.59906 26.6559 6.25594C26.6128 6.15375 26.5622 6.05719 26.5078 5.95969C26.3691 5.70937 26.1478 5.53219 25.9144 5.37375C25.8075 5.3025 25.6856 5.26969 25.5619 5.26969C25.3031 5.26969 25.0397 5.41313 24.9103 5.63625C24.9 5.65406 24.9009 5.67187 24.8916 5.68969C24.7125 5.89031 24.5203 6.07875 24.3291 6.26719C24.1078 6.48469 23.9006 6.7125 23.6906 6.93844C23.2744 7.38656 22.8431 7.83094 22.3725 8.22281C22.3078 8.20875 22.2441 8.19281 22.1803 8.17219C22.1344 8.14594 22.0903 8.11781 22.0472 8.08594C21.9056 7.96688 21.7791 7.83563 21.6516 7.69969C21.5081 7.545 21.3516 7.40625 21.2128 7.24781C21.1997 7.22813 21.1856 7.20844 21.1725 7.18969C21.2822 7.05656 21.3966 6.92625 21.5119 6.79688C21.6478 6.64594 21.7678 6.48 21.9 6.32531C22.3922 5.74969 22.9688 5.24531 23.4937 4.70062C23.6634 4.52437 23.7309 4.29 23.7131 4.06125C23.7178 4.05469 23.7244 4.05094 23.7291 4.04344C23.9363 3.69 23.8162 3.21375 23.4581 3.01031C23.2125 2.86969 22.9688 2.72344 22.7184 2.59125C22.4831 2.47125 22.2366 2.36719 21.9909 2.26969C21.7575 2.17781 21.5053 2.115 21.2616 2.05219C20.9663 1.97531 20.6597 1.94062 20.355 1.91625C20.1413 1.89937 19.9228 1.875 19.7063 1.875C19.6331 1.875 19.5609 1.87781 19.4888 1.88437C19.0866 1.92281 18.6713 1.95937 18.2775 2.06156C17.9456 2.14875 17.6409 2.31563 17.3447 2.48813C17.0212 2.6775 16.7025 2.87625 16.4016 3.10031C16.3416 3.14437 16.2834 3.18937 16.2253 3.23531C16.2562 3.21187 16.2872 3.18844 16.3172 3.165C15.9938 3.41344 15.6788 3.66562 15.3919 3.95625C15.0975 4.25719 14.8163 4.59656 14.5763 4.9425C14.3653 5.24531 14.1713 5.55 14.0025 5.87813C13.8319 6.21281 13.6875 6.54 13.6228 6.90937C13.5581 7.29375 13.4888 7.67625 13.4438 8.06438C13.3969 8.47312 13.4353 8.87719 13.5047 9.28219C13.5459 9.52594 13.6434 9.76031 13.7119 9.99938C13.8009 10.3228 13.9397 10.6209 14.1019 10.9125C14.1638 11.025 14.2463 11.1187 14.325 11.2162C13.8638 11.685 13.4034 12.1537 12.9338 12.6141C12.4012 13.1362 11.8566 13.6453 11.3194 14.1609C10.77 14.6859 10.1934 15.1838 9.64406 15.7097C9.13594 16.1972 8.63531 16.6931 8.13 17.1872C7.60313 17.7038 7.08469 18.2278 6.59344 18.7809C6.10594 19.3275 5.62406 19.875 5.16281 20.4422C4.74656 20.9569 4.34531 21.4828 3.93094 21.9994C3.74156 22.2337 3.55125 22.4672 3.37969 22.7166C3.21938 22.9425 3.0975 23.19 2.95875 23.43C2.79656 23.7103 2.64 23.9831 2.52563 24.2878C2.41969 24.5709 2.39156 24.8831 2.41781 25.1822C2.4525 25.5666 2.51531 25.92 2.7225 26.2556C2.8725 26.4975 3.06656 26.6728 3.27938 26.8556C3.51281 27.0572 3.73688 27.2597 4.00875 27.4144C4.19625 27.5203 4.40156 27.6019 4.60031 27.6872C4.85813 27.8006 5.11219 27.9253 5.37469 28.0247C5.42719 28.0453 5.48063 28.0631 5.53688 28.0781C5.76844 28.1409 5.9775 28.1334 6.21 28.0978C6.39469 28.0697 6.57188 28.0266 6.74625 27.9581C6.92063 27.8906 7.08938 27.8184 7.24594 27.7181C7.44094 27.5925 7.61813 27.4416 7.79719 27.2934C8.055 27.0806 8.29969 26.8566 8.53875 26.6231C9.03656 26.1375 9.52219 25.6388 10.0125 25.1437C10.2609 24.8953 10.5169 24.6553 10.7766 24.4144C11.0391 24.1706 11.2894 23.91 11.5425 23.6559C12.0506 23.1459 12.5625 22.635 13.0509 22.1072C13.5394 21.5784 14.0166 21.0356 14.4816 20.4834C14.715 20.2069 14.9531 19.935 15.1913 19.6641C15.4369 19.3866 15.6394 19.0809 15.8616 18.7856C16.0753 18.5194 16.2975 18.2606 16.5047 17.9906C16.6537 17.7956 16.785 17.5894 16.9284 17.3916C17.0962 17.1863 17.2772 16.9903 17.4394 16.7775C17.5978 16.5703 17.7506 16.3584 17.9072 16.1494C18.0225 15.9966 18.1266 15.8381 18.2241 15.6712C18.2259 15.6684 18.2278 15.6656 18.2297 15.6619C18.2672 15.6853 18.3 15.7153 18.3403 15.735C18.6375 15.8831 18.975 16.0153 19.2975 16.0988C19.6509 16.1925 20.0353 16.2356 20.3991 16.2009C20.7731 16.1644 21.1491 16.1091 21.5156 16.0284C22.1016 15.9 22.7025 15.8541 23.2678 15.6403C24.0056 15.3638 24.66 14.9203 25.2234 14.3719C25.4859 14.1178 25.7278 13.8431 25.9772 13.575C26.2453 13.2862 26.4872 12.9731 26.7131 12.6497C26.9363 12.3328 27.1059 11.9681 27.2494 11.6091C27.3759 11.2875 27.465 10.9528 27.5278 10.6134C27.6666 9.84938 27.5709 9.03656 27.3469 8.29594ZM22.1381 8.15906C22.1203 8.145 22.1025 8.13094 22.0847 8.11781C22.0828 8.11594 22.08 8.11406 22.0781 8.11219C22.0978 8.12812 22.1184 8.14406 22.1381 8.15906ZM22.0134 8.0625C22.0088 8.05969 22.005 8.05594 22.0003 8.05313C22.0181 8.06719 22.0369 8.08125 22.0547 8.09437C22.0584 8.09719 22.0622 8.1 22.0659 8.10281C22.0294 8.07469 21.9937 8.0475 21.9572 8.01937C21.9759 8.03437 21.9947 8.04844 22.0134 8.0625ZM26.1112 10.1859C26.0531 10.5197 25.9716 10.8506 25.8525 11.1675C25.7728 11.3428 25.6941 11.5191 25.5994 11.6869C25.4981 11.865 25.38 12.0319 25.2581 12.1969C25.0256 12.4856 24.7744 12.7594 24.5259 13.0369C24.2663 13.3266 23.9878 13.5966 23.6859 13.8403C23.4487 14.0128 23.1956 14.16 22.9284 14.2828C22.3191 14.5237 21.66 14.6334 21.0103 14.7244C20.6869 14.7638 20.3588 14.7834 20.0325 14.7544C19.8441 14.7197 19.6631 14.6691 19.4841 14.5978C19.335 14.5331 19.185 14.4647 19.0491 14.3784C18.9928 14.3259 18.9384 14.2706 18.885 14.2125C18.7753 14.0944 18.645 13.9894 18.5072 13.9078C18.1388 13.6866 17.6447 13.8225 17.4281 14.1909C17.3906 14.2547 17.3784 14.3231 17.3606 14.3897C17.3363 14.4291 17.3053 14.4628 17.2894 14.5078C17.2416 14.5847 17.1844 14.6559 17.1328 14.7291C17.0653 14.8228 17.0044 14.9203 16.9434 15.0178C16.8272 15.2044 16.7175 15.3863 16.5834 15.5625C16.5947 15.5484 16.6059 15.5334 16.6172 15.5194C16.5797 15.5681 16.5413 15.6169 16.5038 15.6656C16.5188 15.6469 16.5338 15.6281 16.5488 15.6094C16.4484 15.7397 16.3491 15.8709 16.2497 16.0022C16.0763 16.2178 15.8831 16.4175 15.7284 16.6472C15.6656 16.7409 15.6169 16.8422 15.5541 16.9359C15.5025 17.0138 15.4463 17.0897 15.39 17.1656C15.2259 17.3737 15.0563 17.5763 14.8894 17.7797C14.6906 18.0263 14.5097 18.2841 14.3231 18.5391C14.1075 18.7978 13.8731 19.0406 13.6547 19.2966C13.425 19.5647 13.1953 19.8328 12.9619 20.0972C12.4819 20.6381 11.9822 21.1622 11.4703 21.6731C10.95 22.1897 10.4438 22.7184 9.93094 23.2425C9.68719 23.49 9.43688 23.7309 9.18656 23.9738C8.9325 24.2194 8.6925 24.4762 8.44219 24.7266C8.17125 24.9966 7.88344 25.2525 7.60313 25.5131C7.35094 25.7513 7.08188 25.965 6.80906 26.1769C6.66281 26.2866 6.51375 26.3906 6.34969 26.4731C6.23438 26.5144 6.11813 26.5462 5.99813 26.5697C5.97281 26.5716 5.9475 26.5725 5.92219 26.5725C5.76375 26.5341 5.61188 26.4769 5.46094 26.4122C5.52188 26.4384 5.58281 26.4647 5.64375 26.49C5.38219 26.3794 5.11313 26.2875 4.84875 26.1825C4.72875 26.1281 4.61156 26.0681 4.50094 25.9969C4.41281 25.92 4.32938 25.8366 4.2375 25.7616C4.13344 25.6744 4.02938 25.5938 3.9375 25.4963C3.91125 25.4559 3.88688 25.4147 3.86438 25.3716C3.84844 25.3219 3.83531 25.2722 3.825 25.2206C3.81469 25.1128 3.81 25.0041 3.81469 24.8962C3.83063 24.825 3.85031 24.7556 3.87375 24.6863C4.00594 24.4041 4.17563 24.1378 4.32844 23.8669C4.49906 23.5659 4.69219 23.2875 4.90219 23.0147C4.89375 23.0259 4.88438 23.0372 4.87594 23.0484C5.29969 22.4953 5.71125 21.9347 6.135 21.3806C6.56531 20.8331 7.02094 20.3063 7.49063 19.7906C7.73625 19.5206 7.97438 19.2478 8.22844 18.9853C8.49094 18.7153 8.76281 18.4566 9.03375 18.1941C9.54375 17.7 10.0462 17.1975 10.5506 16.6997C11.0775 16.1812 11.6419 15.7031 12.1847 15.1997C12.7519 14.6737 13.3275 14.1591 13.9022 13.6388C14.5613 13.0434 15.2034 12.4331 15.8334 11.8031C15.8466 11.79 15.8513 11.7722 15.8625 11.7581C15.8738 11.7478 15.8887 11.7441 15.9 11.7337C16.2197 11.4141 16.1869 10.9331 15.9 10.6078C15.7856 10.4794 15.6647 10.3566 15.5503 10.2272C15.4669 10.0978 15.3984 9.95625 15.3328 9.81656C15.2822 9.66937 15.2447 9.51656 15.1997 9.36656C15.15 9.19313 15.0938 9.02344 15.0591 8.84719C15.0272 8.49563 15.0431 8.14219 15.0862 7.79063C15.1331 7.44375 15.1725 7.09687 15.2925 6.76687C15.4903 6.33938 15.7284 5.93438 16.0097 5.55563C16.1859 5.33625 16.3697 5.12344 16.5637 4.91531C16.7391 4.72781 16.9359 4.56094 17.1375 4.40062C17.5453 4.095 17.9878 3.80625 18.4519 3.5925C18.6319 3.53062 18.8156 3.48656 19.0041 3.45469C19.3031 3.42094 19.6003 3.39469 19.9013 3.41344C20.1375 3.4275 20.3775 3.44438 20.6128 3.4725C20.9934 3.5325 21.3787 3.62812 21.7378 3.76969C21.8325 3.81375 21.9197 3.86719 22.0106 3.91687C21.2541 4.70344 20.4816 5.4825 19.8159 6.34781C19.7081 6.4875 19.6472 6.62156 19.5806 6.78938C19.4484 7.12687 19.5234 7.5075 19.7109 7.8075C19.8975 8.10469 20.1375 8.37094 20.3963 8.60438C20.5669 8.75719 20.7047 8.94187 20.8819 9.08437C21.0122 9.18844 21.1462 9.28969 21.2803 9.39094C21.4312 9.50719 21.6094 9.58219 21.7931 9.63281C21.9797 9.68531 22.1812 9.70594 22.3706 9.72375C22.8319 9.76875 23.2144 9.45938 23.5312 9.17438C23.8266 8.91 24.1106 8.62781 24.3947 8.34938C24.6656 8.085 24.9234 7.80844 25.1981 7.54781C25.2966 7.45594 25.3969 7.365 25.4972 7.27406C25.5197 7.35375 25.5431 7.4325 25.5684 7.51125C25.6313 7.71469 25.7044 7.91625 25.7672 8.12062C25.8863 8.49844 26.0109 8.88562 26.0775 9.2775C26.1112 9.57937 26.1347 9.88406 26.1112 10.1859ZM6.61031 24.6684C6.61031 25.0809 6.26625 25.425 5.85375 25.425C5.44125 25.425 5.09719 25.08 5.09719 24.6684C5.09719 24.2559 5.44125 23.9119 5.85375 23.9119C6.26625 23.9119 6.61031 24.2559 6.61031 24.6684Z" fill="#E6E6E6"/>
</svg>
