<svg width="30" height="28" viewBox="0 0 30 28" fill="none" xmlns="http://www.w3.org/2000/svg">
<path d="M22.059 11.5738V0.544189H9.48574V6.63264H0V27.4411H9.48574V27.4557H30V11.5734H22.059V11.5738ZM6.25318 26.5591V21.5554H4.11523V26.5591H0.882604V7.51482H9.48574V26.5591H6.25318ZM29.1175 26.5735H17.941V17.6765H14.1174V26.5735H10.3678V6.63264V1.42685H21.1763V12.4564H29.1175V26.5735ZM11.5112 3.55875H13.3497V7.64752H11.5112V3.55875ZM15.034 3.55875H16.8718V7.64752H15.034V3.55875ZM18.4226 3.55875H20.2613V7.64752H18.4226V3.55875ZM11.5112 9.83784H13.3497V14.3679H11.5112V9.83784ZM15.034 9.83784H16.8718V14.3679H15.034V9.83784ZM18.4226 9.83784H20.2613V14.3679H18.4226V9.83784ZM23.5329 18.6402H21.695V14.4411H23.5329V18.6402ZM23.5329 25.3604H21.695V21.0512H23.5329V25.3604ZM27.3927 18.6402H25.5549V14.4411H27.3927V18.6402ZM27.3927 25.3604H25.5549V21.0512H27.3927V25.3604ZM2.33494 8.98169H4.17286V13.1805H2.33494V8.98169ZM2.33494 15.5913H4.17286V19.9004H2.33494V15.5913ZM6.19494 8.98169H8.03279V13.1805H6.19494V8.98169ZM6.19494 15.5913H8.03279V19.9004H6.19494V15.5913Z" fill="#E6E6E6"/>
</svg>
