<svg width="50" height="45" viewBox="0 0 50 45" fill="none" xmlns="http://www.w3.org/2000/svg">
<path d="M36.765 18.4564V0.0737305H15.8096V10.2211H0V44.9019H15.8096V44.9262H50V18.4557H36.765V18.4564ZM10.422 43.4319V35.0924H6.85871V43.4319H1.47101V11.6914H15.8096V43.4319H10.422ZM48.5292 43.4559H29.9016V28.6276H23.529V43.4559H17.2797V10.2211V1.54484H35.2938V19.9274H48.5292V43.4559ZM19.1853 5.098H22.2495V11.9126H19.1853V5.098ZM25.0567 5.098H28.1197V11.9126H25.0567V5.098ZM30.7044 5.098H33.7688V11.9126H30.7044V5.098ZM19.1853 15.5631H22.2495V23.1132H19.1853V15.5631ZM25.0567 15.5631H28.1197V23.1132H25.0567V15.5631ZM30.7044 15.5631H33.7688V23.1132H30.7044V15.5631ZM39.2216 30.2338H36.1584V23.2352H39.2216V30.2338ZM39.2216 41.4341H36.1584V34.2521H39.2216V41.4341ZM45.6546 30.2338H42.5915V23.2352H45.6546V30.2338ZM45.6546 41.4341H42.5915V34.2521H45.6546V41.4341ZM3.89157 14.1362H6.95477V21.1343H3.89157V14.1362ZM3.89157 25.1522H6.95477V32.3341H3.89157V25.1522ZM10.3249 14.1362H13.388V21.1343H10.3249V14.1362ZM10.3249 25.1522H13.388V32.3341H10.3249V25.1522Z" fill="#FFA500"/>
</svg>
