<svg width="30" height="30" viewBox="0 0 30 30" fill="none" xmlns="http://www.w3.org/2000/svg">
<path d="M8.48631 2.83372L10.2648 2.29765C11.9394 1.79289 13.7285 2.60864 14.4457 4.20388L15.5528 6.66653C16.164 8.02625 15.8419 9.62425 14.7516 10.641L12.8177 12.4443C12.7938 12.4666 12.7742 12.4931 12.7598 12.5225C12.5576 12.9359 12.8641 14.0405 13.8278 15.7097C14.9141 17.5911 15.7536 18.3356 16.1414 18.2201L18.68 17.4439C20.1053 17.0082 21.6498 17.5278 22.5219 18.7364L24.0942 20.9155C25.1149 22.3301 24.9314 24.2818 23.6648 25.4813L22.3125 26.7619C21.3574 27.6665 20.0199 28.0461 18.732 27.7784C14.9636 26.9949 11.5873 23.9603 8.57485 18.7425C5.55941 13.5197 4.62057 9.07473 5.83171 5.41751C6.24306 4.17538 7.2335 3.21135 8.48631 2.83372ZM8.95013 4.37248C8.19845 4.59906 7.60418 5.17747 7.35737 5.92276C6.3138 9.07398 7.15911 13.0761 9.96667 17.939C12.7716 22.7972 15.8118 25.5298 19.0591 26.2049C19.8319 26.3655 20.6343 26.1377 21.2074 25.595L22.5597 24.3144C23.2417 23.6685 23.3405 22.6176 22.7909 21.8559L21.2186 19.6768C20.749 19.026 19.9173 18.7462 19.1499 18.9808L16.6059 19.7586C15.1979 20.1783 13.8745 19.0048 12.436 16.5133C11.2182 14.4041 10.7955 12.8806 11.3162 11.8162C11.4168 11.6105 11.5543 11.425 11.7217 11.2689L13.6555 9.46558C14.2426 8.91811 14.4161 8.05765 14.0869 7.3255L12.9798 4.86284C12.5937 4.00387 11.6303 3.56462 10.7286 3.83641L8.95013 4.37248Z" fill="#B0B0B0"/>
</svg>
