<svg width="30" height="30" viewBox="0 0 30 30" fill="none" xmlns="http://www.w3.org/2000/svg">
<path fill-rule="evenodd" clip-rule="evenodd" d="M20.0905 5.03059C18.8829 3.80227 17.1786 3.125 15.19 3.125C13.2014 3.125 11.4972 3.80227 10.2896 5.03059C9.08295 6.25795 8.42055 7.98614 8.42055 10C8.42055 12.7113 9.60101 14.4588 11.062 15.5078C11.3459 15.7115 11.6394 15.8884 11.9354 16.0409C10.3027 16.4895 8.97697 17.2716 7.89761 18.2417C6.1909 19.7756 5.13309 21.7491 4.42041 23.5163C4.29131 23.8364 4.44616 24.2005 4.7663 24.3296C5.08642 24.4587 5.45059 24.3039 5.57969 23.9837C6.25802 22.3018 7.22682 20.5252 8.73316 19.1714C10.2244 17.8313 12.2751 16.875 15.19 16.875C17.915 16.875 19.8822 17.7106 21.3425 18.9099C22.815 20.1191 23.8066 21.727 24.5171 23.3165C24.9911 24.377 24.1592 25.625 22.8534 25.625H8.4311C8.08592 25.625 7.8061 25.9049 7.8061 26.25C7.8061 26.5951 8.08592 26.875 8.4311 26.875H22.8534C24.9185 26.875 26.5599 24.8235 25.6584 22.8065C24.904 21.119 23.813 19.3211 22.1359 17.9439C21.1404 17.1264 19.9504 16.4671 18.5254 16.0634C19.2875 15.642 19.914 15.0828 20.4125 14.4489C21.4911 13.0775 21.9595 11.3752 21.9595 10C21.9595 7.98614 21.2971 6.25795 20.0905 5.03059ZM19.1991 5.90691C20.143 6.86705 20.7095 8.26386 20.7095 10C20.7095 11.1248 20.3176 12.5475 19.43 13.6761C18.5594 14.7831 17.2009 15.625 15.19 15.625C14.3767 15.625 12.9736 15.3414 11.791 14.4922C10.6406 13.6662 9.67055 12.2888 9.67055 10C9.67055 8.26386 10.237 6.86705 11.181 5.90691C12.1239 4.94773 13.4919 4.375 15.19 4.375C16.8881 4.375 18.2561 4.94773 19.1991 5.90691Z" fill="#E6E6E6"/>
</svg>
