<svg width="30" height="30" viewBox="0 0 30 30" fill="none" xmlns="http://www.w3.org/2000/svg">
<path fill-rule="evenodd" clip-rule="evenodd" d="M20.0906 5.03059C18.883 3.80227 17.1787 3.125 15.1901 3.125C13.2015 3.125 11.4973 3.80227 10.2897 5.03059C9.08306 6.25795 8.42066 7.98614 8.42066 10C8.42066 12.7113 9.60113 14.4588 11.0621 15.5078C11.3461 15.7115 11.6395 15.8884 11.9355 16.0409C10.3028 16.4895 8.97709 17.2716 7.89773 18.2417C6.19101 19.7756 5.1332 21.7491 4.42053 23.5163C4.29143 23.8364 4.44628 24.2005 4.76641 24.3296C5.08654 24.4587 5.4507 24.3039 5.5798 23.9837C6.25814 22.3018 7.22694 20.5252 8.73328 19.1714C10.2245 17.8313 12.2752 16.875 15.1901 16.875C17.9151 16.875 19.8824 17.7106 21.3426 18.9099C22.8151 20.1191 23.8067 21.727 24.5172 23.3165C24.9912 24.377 24.1594 25.625 22.8535 25.625H8.43121C8.08604 25.625 7.80621 25.9049 7.80621 26.25C7.80621 26.5951 8.08604 26.875 8.43121 26.875H22.8535C24.9186 26.875 26.56 24.8235 25.6585 22.8065C24.9041 21.119 23.8131 19.3211 22.136 17.9439C21.1405 17.1264 19.9505 16.4671 18.5255 16.0634C19.2876 15.642 19.9141 15.0828 20.4126 14.4489C21.4912 13.0775 21.9596 11.3752 21.9596 10C21.9596 7.98614 21.2972 6.25795 20.0906 5.03059ZM19.1992 5.90691C20.1431 6.86705 20.7096 8.26386 20.7096 10C20.7096 11.1248 20.3177 12.5475 19.4301 13.6761C18.5595 14.7831 17.201 15.625 15.1901 15.625C14.3769 15.625 12.9737 15.3414 11.7912 14.4922C10.6408 13.6662 9.67066 12.2888 9.67066 10C9.67066 8.26386 10.2372 6.86705 11.1811 5.90691C12.1241 4.94773 13.492 4.375 15.1901 4.375C16.8882 4.375 18.2562 4.94773 19.1992 5.90691Z" fill="#8A8A8A"/>
</svg>
