<svg width="65" height="49" viewBox="0 0 65 49" fill="none" xmlns="http://www.w3.org/2000/svg">
<path opacity="0.4" d="M32.5001 44.9363C47.4577 44.9363 59.5834 35.7956 59.5834 24.5197C59.5834 13.2439 47.4577 4.10303 32.5001 4.10303C17.5424 4.10303 5.41675 13.2439 5.41675 24.5197C5.41675 35.7956 17.5424 44.9363 32.5001 44.9363Z" fill="#C9D4E0"/>
<path d="M32.5 14.1687C26.8938 14.1687 22.3438 17.5987 22.3438 21.8249C22.3438 25.9695 26.65 29.3382 32.3646 29.4607C32.4458 29.4607 32.5542 29.4607 32.6083 29.4607C32.6625 29.4607 32.7437 29.4607 32.7979 29.4607C32.825 29.4607 32.8521 29.4607 32.8521 29.4607C38.3229 29.3178 42.6292 25.9695 42.6562 21.8249C42.6562 17.5987 38.1062 14.1687 32.5 14.1687Z" fill="#123D6A" fill-opacity="0.3"/>
<path d="M50.8632 39.5274C46.0424 42.8757 39.5965 44.9378 32.5007 44.9378C25.4049 44.9378 18.959 42.8757 14.1382 39.5274C14.7882 37.6695 16.5486 35.9749 19.1215 34.6682C26.5153 30.9524 38.5403 30.9524 45.8799 34.6682C48.4799 35.9749 50.2132 37.6695 50.8632 39.5274Z" fill="#123D6A" fill-opacity="0.3"/>
</svg>
