<svg width="152" height="150" viewBox="0 0 152 150" fill="none" xmlns="http://www.w3.org/2000/svg">
<path opacity="0.4" d="M75.9998 137.143C110.978 137.143 139.333 109.348 139.333 75.0598C139.333 40.7722 110.978 12.9766 75.9998 12.9766C41.0218 12.9766 12.6665 40.7722 12.6665 75.0598C12.6665 109.348 41.0218 137.143 75.9998 137.143Z" fill="#C9D4E0"/>
<path d="M76 43.584C62.89 43.584 52.25 54.014 52.25 66.865C52.25 79.4679 62.32 89.7117 75.6833 90.0842C75.8733 90.0842 76.1267 90.0842 76.2533 90.0842C76.38 90.0842 76.57 90.0842 76.6967 90.0842C76.76 90.0842 76.8233 90.0842 76.8233 90.0842C89.6167 89.6496 99.6867 79.4679 99.75 66.865C99.75 54.014 89.11 43.584 76 43.584Z" fill="#123D6A" fill-opacity="0.3"/>
<path d="M118.942 120.696C107.668 130.877 92.5949 137.148 76.0015 137.148C59.4082 137.148 44.3349 130.877 33.0615 120.696C34.5815 115.046 38.6982 109.893 44.7149 105.92C62.0049 94.6205 90.1249 94.6205 107.288 105.92C113.368 109.893 117.422 115.046 118.942 120.696Z" fill="#123D6A" fill-opacity="0.3"/>
</svg>
