<svg width="42" height="45" viewBox="0 0 42 45" fill="none" xmlns="http://www.w3.org/2000/svg">
<path d="M41.5772 11.3266C41.4084 10.775 41.2241 10.2328 41.0319 9.6875C40.8256 9.10156 40.6725 8.49844 40.4256 7.92656C40.3538 7.75625 40.2694 7.59531 40.1788 7.43281C39.9475 7.01562 39.5788 6.72031 39.1897 6.45625C39.0116 6.3375 38.8084 6.28281 38.6022 6.28281C38.1709 6.28281 37.7319 6.52187 37.5163 6.89375C37.4991 6.92344 37.5006 6.95312 37.485 6.98281C37.1866 7.31719 36.8663 7.63125 36.5475 7.94531C36.1788 8.30781 35.8334 8.6875 35.4834 9.06406C34.7897 9.81094 34.0709 10.5516 33.2866 11.2047C33.1788 11.1812 33.0725 11.1547 32.9663 11.1203C32.8897 11.0766 32.8163 11.0297 32.7444 10.9766C32.5084 10.7781 32.2975 10.5594 32.085 10.3328C31.8459 10.075 31.585 9.84375 31.3538 9.57969C31.3319 9.54688 31.3084 9.51406 31.2866 9.48281C31.4694 9.26094 31.66 9.04375 31.8522 8.82812C32.0788 8.57656 32.2788 8.3 32.4991 8.04219C33.3194 7.08281 34.2803 6.24219 35.1553 5.33437C35.4381 5.04063 35.5506 4.65 35.5209 4.26875C35.5288 4.25781 35.5397 4.25156 35.5475 4.23906C35.8928 3.65 35.6928 2.85625 35.0959 2.51719C34.6866 2.28281 34.2803 2.03906 33.8631 1.81875C33.4709 1.61875 33.06 1.44531 32.6506 1.28281C32.2616 1.12969 31.8413 1.025 31.435 0.920312C30.9428 0.792187 30.4319 0.734375 29.9241 0.69375C29.5678 0.665625 29.2038 0.625 28.8428 0.625C28.7209 0.625 28.6006 0.629687 28.4803 0.640625C27.81 0.704687 27.1178 0.765625 26.4616 0.935937C25.9084 1.08125 25.4006 1.35938 24.9069 1.64688C24.3678 1.9625 23.8366 2.29375 23.335 2.66719C23.235 2.74062 23.1381 2.81562 23.0413 2.89219C23.0928 2.85312 23.1444 2.81406 23.1944 2.775C22.6553 3.18906 22.1303 3.60937 21.6522 4.09375C21.1616 4.59531 20.6928 5.16094 20.2928 5.7375C19.9413 6.24219 19.6178 6.75 19.3366 7.29688C19.0522 7.85469 18.8116 8.4 18.7038 9.01562C18.5959 9.65625 18.4803 10.2938 18.4053 10.9406C18.3272 11.6219 18.3913 12.2953 18.5069 12.9703C18.5756 13.3766 18.7381 13.7672 18.8522 14.1656C19.0006 14.7047 19.2319 15.2016 19.5022 15.6875C19.6053 15.875 19.7428 16.0312 19.8741 16.1937C19.1053 16.975 18.3381 17.7563 17.5553 18.5234C16.6678 19.3937 15.76 20.2422 14.8647 21.1016C13.9491 21.9766 12.9881 22.8062 12.0725 23.6828C11.2256 24.4953 10.3913 25.3219 9.54907 26.1453C8.67095 27.0063 7.80688 27.8797 6.98813 28.8016C6.17563 29.7125 5.37251 30.625 4.60376 31.5703C3.91001 32.4281 3.24126 33.3047 2.55063 34.1656C2.23501 34.5562 1.91782 34.9453 1.63188 35.3609C1.3647 35.7375 1.16157 36.15 0.93032 36.55C0.660008 37.0172 0.39907 37.4719 0.208445 37.9797C0.0318828 38.4516 -0.0149922 38.9719 0.0287578 39.4703C0.0865703 40.1109 0.191258 40.7 0.53657 41.2594C0.78657 41.6625 1.11001 41.9547 1.4647 42.2594C1.85376 42.5953 2.2272 42.9328 2.68032 43.1906C2.99282 43.3672 3.33501 43.5031 3.66626 43.6453C4.09595 43.8344 4.51938 44.0422 4.95688 44.2078C5.04438 44.2422 5.13345 44.2719 5.2272 44.2969C5.61313 44.4016 5.96157 44.3891 6.34907 44.3297C6.65688 44.2828 6.9522 44.2109 7.24282 44.0969C7.53345 43.9844 7.8147 43.8641 8.07563 43.6969C8.40063 43.4875 8.69595 43.2359 8.99438 42.9891C9.42407 42.6344 9.83188 42.2609 10.2303 41.8719C11.06 41.0625 11.8694 40.2313 12.6866 39.4062C13.1006 38.9922 13.5272 38.5922 13.96 38.1906C14.3975 37.7844 14.8147 37.35 15.2366 36.9266C16.0834 36.0766 16.9366 35.225 17.7506 34.3453C18.5647 33.4641 19.36 32.5594 20.135 31.6391C20.5241 31.1781 20.9209 30.725 21.3178 30.2734C21.7272 29.8109 22.0647 29.3016 22.435 28.8094C22.7913 28.3656 23.1616 27.9344 23.5069 27.4844C23.7553 27.1594 23.9741 26.8156 24.2131 26.4859C24.4928 26.1438 24.7944 25.8172 25.0647 25.4625C25.3288 25.1172 25.5834 24.7641 25.8444 24.4156C26.0366 24.1609 26.21 23.8969 26.3725 23.6187C26.3756 23.6141 26.3788 23.6094 26.3819 23.6031C26.4444 23.6422 26.4991 23.6922 26.5663 23.725C27.0616 23.9719 27.6241 24.1922 28.1616 24.3313C28.7506 24.4875 29.3913 24.5594 29.9975 24.5016C30.6209 24.4406 31.2475 24.3484 31.8584 24.2141C32.835 24 33.8366 23.9234 34.7788 23.5672C36.0084 23.1063 37.0991 22.3672 38.0381 21.4531C38.4756 21.0297 38.8788 20.5719 39.2944 20.125C39.7413 19.6437 40.1444 19.1219 40.5209 18.5828C40.8928 18.0547 41.1756 17.4469 41.4147 16.8484C41.6256 16.3125 41.7741 15.7547 41.8788 15.1891C42.11 13.9156 41.9506 12.5609 41.5772 11.3266ZM32.8959 11.0984C32.8663 11.075 32.8366 11.0516 32.8069 11.0297C32.8038 11.0266 32.7991 11.0234 32.7959 11.0203C32.8288 11.0469 32.8631 11.0734 32.8959 11.0984ZM32.6881 10.9375C32.6803 10.9328 32.6741 10.9266 32.6663 10.9219C32.6959 10.9453 32.7272 10.9688 32.7569 10.9906C32.7631 10.9953 32.7694 11 32.7756 11.0047C32.7147 10.9578 32.6553 10.9125 32.5944 10.8656C32.6256 10.8906 32.6569 10.9141 32.6881 10.9375ZM39.5178 14.4766C39.4209 15.0328 39.285 15.5844 39.0866 16.1125C38.9538 16.4047 38.8225 16.6984 38.6647 16.9781C38.4959 17.275 38.2991 17.5531 38.0959 17.8281C37.7084 18.3094 37.2897 18.7656 36.8756 19.2281C36.4428 19.7109 35.9788 20.1609 35.4756 20.5672C35.0803 20.8547 34.6584 21.1 34.2131 21.3047C33.1975 21.7062 32.0991 21.8891 31.0163 22.0406C30.4772 22.1063 29.9303 22.1391 29.3866 22.0906C29.0725 22.0328 28.7709 21.9484 28.4725 21.8297C28.2241 21.7219 27.9741 21.6078 27.7475 21.4641C27.6538 21.3766 27.5631 21.2844 27.4741 21.1875C27.2913 20.9906 27.0741 20.8156 26.8444 20.6797C26.2303 20.3109 25.4069 20.5375 25.0459 21.1516C24.9834 21.2578 24.9631 21.3719 24.9334 21.4828C24.8928 21.5484 24.8413 21.6047 24.8147 21.6797C24.735 21.8078 24.6397 21.9266 24.5538 22.0484C24.4413 22.2047 24.3397 22.3672 24.2381 22.5297C24.0444 22.8406 23.8616 23.1438 23.6381 23.4375C23.6569 23.4141 23.6756 23.3891 23.6944 23.3656C23.6319 23.4469 23.5678 23.5281 23.5053 23.6094C23.5303 23.5781 23.5553 23.5469 23.5803 23.5156C23.4131 23.7328 23.2475 23.9516 23.0819 24.1703C22.7928 24.5297 22.4709 24.8625 22.2131 25.2453C22.1084 25.4016 22.0272 25.5703 21.9225 25.7266C21.8366 25.8563 21.7428 25.9828 21.6491 26.1094C21.3756 26.4562 21.0928 26.7938 20.8147 27.1328C20.4834 27.5438 20.1819 27.9734 19.8709 28.3984C19.5116 28.8297 19.1209 29.2344 18.7569 29.6609C18.3741 30.1078 17.9913 30.5547 17.6022 30.9953C16.8022 31.8969 15.9694 32.7703 15.1163 33.6219C14.2491 34.4828 13.4053 35.3641 12.5506 36.2375C12.1444 36.65 11.7272 37.0516 11.31 37.4562C10.8866 37.8656 10.4866 38.2938 10.0694 38.7109C9.61782 39.1609 9.13813 39.5875 8.67095 40.0219C8.25063 40.4188 7.8022 40.775 7.34751 41.1281C7.10376 41.3109 6.85532 41.4844 6.58188 41.6219C6.3897 41.6906 6.19594 41.7437 5.99594 41.7828C5.95376 41.7859 5.91157 41.7875 5.86938 41.7875C5.60532 41.7234 5.35219 41.6281 5.10063 41.5203C5.20219 41.5641 5.30376 41.6078 5.40532 41.65C4.96938 41.4656 4.52095 41.3125 4.08032 41.1375C3.88032 41.0469 3.68501 40.9469 3.50063 40.8281C3.35376 40.7 3.2147 40.5609 3.06157 40.4359C2.88813 40.2906 2.71469 40.1562 2.56157 39.9937C2.51782 39.9266 2.4772 39.8578 2.4397 39.7859C2.41313 39.7031 2.39126 39.6203 2.37407 39.5344C2.35688 39.3547 2.34907 39.1734 2.35688 38.9938C2.38345 38.875 2.41626 38.7594 2.45532 38.6438C2.67563 38.1734 2.95845 37.7297 3.21313 37.2781C3.49751 36.7766 3.81938 36.3125 4.16938 35.8578C4.15532 35.8766 4.1397 35.8953 4.12563 35.9141C4.83188 34.9922 5.51782 34.0578 6.22407 33.1344C6.94126 32.2219 7.70063 31.3438 8.48345 30.4844C8.89282 30.0344 9.2897 29.5797 9.71313 29.1422C10.1506 28.6922 10.6038 28.2609 11.0553 27.8234C11.9053 27 12.7428 26.1625 13.5834 25.3328C14.4616 24.4688 15.4022 23.6719 16.3069 22.8328C17.2522 21.9562 18.2116 21.0984 19.1694 20.2313C20.2678 19.2391 21.3381 18.2219 22.3881 17.1719C22.41 17.15 22.4178 17.1203 22.4366 17.0969C22.4553 17.0797 22.4803 17.0734 22.4991 17.0562C23.0319 16.5234 22.9772 15.7219 22.4991 15.1797C22.3084 14.9656 22.1069 14.7609 21.9163 14.5453C21.7772 14.3297 21.6631 14.0938 21.5538 13.8609C21.4694 13.6156 21.4069 13.3609 21.3319 13.1109C21.2491 12.8219 21.1553 12.5391 21.0975 12.2453C21.0444 11.6594 21.0709 11.0703 21.1428 10.4844C21.2209 9.90625 21.2866 9.32812 21.4866 8.77812C21.8163 8.06562 22.2131 7.39062 22.6819 6.75938C22.9756 6.39375 23.2819 6.03906 23.6053 5.69219C23.8975 5.37969 24.2256 5.10156 24.5616 4.83437C25.2413 4.325 25.9788 3.84375 26.7522 3.4875C27.0522 3.38438 27.3584 3.31094 27.6725 3.25781C28.1709 3.20156 28.6663 3.15781 29.1678 3.18906C29.5616 3.2125 29.9616 3.24062 30.3538 3.2875C30.9881 3.3875 31.6303 3.54687 32.2288 3.78281C32.3866 3.85625 32.5319 3.94531 32.6834 4.02813C31.4225 5.33906 30.135 6.6375 29.0256 8.07969C28.8459 8.3125 28.7444 8.53594 28.6334 8.81563C28.4131 9.37813 28.5381 10.0125 28.8506 10.5125C29.1616 11.0078 29.5616 11.4516 29.9928 11.8406C30.2772 12.0953 30.5069 12.4031 30.8022 12.6406C31.0194 12.8141 31.2428 12.9828 31.4663 13.1516C31.7178 13.3453 32.0147 13.4703 32.3209 13.5547C32.6319 13.6422 32.9678 13.6766 33.2834 13.7062C34.0522 13.7812 34.6897 13.2656 35.2178 12.7906C35.71 12.35 36.1834 11.8797 36.6569 11.4156C37.1084 10.975 37.5381 10.5141 37.9959 10.0797C38.16 9.92656 38.3272 9.775 38.4944 9.62344C38.5319 9.75625 38.5709 9.8875 38.6131 10.0188C38.7178 10.3578 38.8397 10.6937 38.9444 11.0344C39.1428 11.6641 39.3506 12.3094 39.4616 12.9625C39.5178 13.4656 39.5569 13.9734 39.5178 14.4766ZM7.01626 38.6141C7.01626 39.3016 6.44282 39.875 5.75532 39.875C5.06782 39.875 4.49438 39.3 4.49438 38.6141C4.49438 37.9266 5.06782 37.3531 5.75532 37.3531C6.44282 37.3531 7.01626 37.9266 7.01626 38.6141Z" fill="#FF0000"/>
</svg>
