<svg width="30" height="30" viewBox="0 0 30 30" fill="none" xmlns="http://www.w3.org/2000/svg">
<g clip-path="url(#clip0_175_714)">
<path d="M3.81529 30C3.73427 30 3.65395 29.9774 3.58396 29.9339C3.48544 29.8724 3.41544 29.7746 3.3892 29.6614L0.206839 15.9662C0.152068 15.7308 0.298534 15.4958 0.533895 15.4411L1.7114 15.1676L15.1317 3.92379L14.3556 3.22173C14.0907 3.38517 13.779 3.47931 13.4457 3.47931C12.4864 3.47931 11.7061 2.69886 11.7061 1.73974C11.7061 0.780628 12.4864 0 13.4457 0C14.405 0 15.1852 0.780453 15.1852 1.73957C15.1852 2.0486 15.1042 2.33908 14.9625 2.59072L15.8089 3.3563L16.0044 3.19251C16.1622 3.06004 16.3911 3.05584 16.554 3.18236L25.0027 9.75513L26.0857 9.5035C26.3214 9.44942 26.556 9.59537 26.6108 9.83073L29.7933 23.5259C29.8481 23.7613 29.7016 23.9963 29.4663 24.0511L3.91434 29.9888C3.88162 29.9963 3.84837 30 3.81529 30ZM1.15808 16.1944L4.14235 29.0376L28.8419 23.2979L25.8575 10.4549L25.0037 10.6534C24.9999 10.6544 24.9958 10.6553 24.9918 10.6562L2.02218 15.9935C2.015 15.9954 2.00783 15.9972 2.00048 15.9986L1.15808 16.1944ZM15.7868 4.5163L3.59656 14.7296L23.9053 10.0103L16.8319 4.50755C16.8252 4.60187 16.7881 4.69479 16.7199 4.77038C16.558 4.94957 16.2814 4.96357 16.102 4.80153L15.7868 4.5163ZM13.4457 0.874947C12.9688 0.874947 12.581 1.2629 12.581 1.73957C12.581 2.21624 12.969 2.60419 13.4457 2.60419C13.6838 2.60419 13.8999 2.50725 14.0565 2.35098C14.0611 2.34626 14.0656 2.34136 14.0704 2.33681C14.2189 2.18142 14.3105 1.97091 14.3105 1.73957C14.3103 1.2629 13.9225 0.874947 13.4457 0.874947ZM7.04437 24.6359C6.84576 24.6359 6.66605 24.4997 6.6188 24.298L5.49064 19.4851C5.43552 19.2499 5.58146 19.0145 5.81682 18.9594C5.96189 18.9254 6.10713 18.9678 6.21002 19.0607C6.41984 18.8572 6.68145 18.7137 6.97333 18.6453C7.39838 18.5457 7.83725 18.6173 8.2084 18.8476C8.57956 19.0777 8.83889 19.4387 8.93863 19.8641C9.14442 20.7418 8.59758 21.6236 7.71983 21.8292C7.65229 21.8451 7.58457 21.8565 7.51719 21.8635L9.74743 23.2466C9.9527 23.3742 10.0159 23.6439 9.88865 23.8489C9.76126 24.0544 9.49177 24.1172 9.28634 23.9903L7.13239 22.6543L7.47082 24.0981C7.52594 24.3333 7.37983 24.5687 7.14464 24.6238C7.11104 24.632 7.07745 24.6359 7.04437 24.6359ZM7.34816 19.4768C7.28988 19.4768 7.23126 19.4837 7.17317 19.4971C6.97543 19.5437 6.80761 19.6641 6.70052 19.8366C6.59343 20.0092 6.56 20.213 6.60637 20.4108C6.70192 20.8187 7.11174 21.0719 7.52017 20.9775C7.92824 20.8817 8.1825 20.4718 8.08679 20.0636C8.04041 19.8658 7.91985 19.698 7.74731 19.5911C7.62551 19.5157 7.48815 19.4768 7.34816 19.4768ZM11.8729 23.2764C11.6742 23.2764 11.4945 23.1402 11.4473 22.9385L10.9277 20.7221C10.9272 20.7201 10.9269 20.7184 10.9263 20.7163C10.926 20.7144 10.9255 20.7126 10.9251 20.7105L10.3756 18.3664C10.3756 18.366 10.3755 18.3655 10.3753 18.365C10.3202 18.1298 10.4663 17.8944 10.7015 17.8393L13.2992 17.2305C13.5342 17.1754 13.7697 17.3215 13.8249 17.5565C13.88 17.7915 13.7339 18.0271 13.4987 18.0822L11.3269 18.5912L11.6784 20.0905L12.9842 19.7845C13.2194 19.7292 13.4549 19.8755 13.5101 20.1105C13.5652 20.3457 13.4192 20.581 13.1841 20.6361L11.8781 20.9424L12.1992 22.3127L14.3712 21.8038C14.6062 21.7487 14.8417 21.8948 14.8968 22.1299C14.952 22.3649 14.8059 22.6004 14.5707 22.6555L11.9742 23.2643C11.9738 23.2643 11.9733 23.2645 11.9729 23.2645C11.9395 23.2724 11.9059 23.2764 11.8729 23.2764ZM16.3598 22.2245C16.1611 22.2245 15.9814 22.0884 15.9342 21.8866L14.8622 17.3131C14.8239 17.1498 14.8825 16.9867 15.0006 16.8835C15.1632 16.7083 15.437 16.6954 15.6148 16.8564L18.9104 19.8349L18.1392 16.5449C18.0841 16.3097 18.23 16.0743 18.4652 16.0192C18.7008 15.9641 18.936 16.1102 18.9911 16.3452L20.0631 20.9188C20.1012 21.0815 20.0429 21.2444 19.9255 21.3475C19.7633 21.524 19.4889 21.537 19.3104 21.3757L16.015 18.3975L16.786 21.6871C16.8412 21.9223 16.6952 22.1577 16.4599 22.2128C16.4264 22.2205 16.3928 22.2245 16.3598 22.2245ZM23.0905 20.6468C22.8919 20.6468 22.7122 20.5107 22.665 20.3089L21.6927 16.1613L20.4801 16.4455C20.2449 16.5003 20.0093 16.3545 19.9544 16.1195C19.8993 15.8843 20.0452 15.6489 20.2806 15.5938L23.5576 14.8256C23.7928 14.7703 24.0281 14.9166 24.0833 15.1516C24.1384 15.3868 23.9924 15.6222 23.7571 15.6773L22.5446 15.9617L23.5168 20.1093C23.5719 20.3444 23.426 20.5798 23.1908 20.6349C23.1572 20.643 23.1236 20.6468 23.0905 20.6468Z" fill="#E6E6E6"/>
</g>
<defs>
<clipPath id="clip0_175_714">
<rect width="30" height="30" fill="white"/>
</clipPath>
</defs>
</svg>
