<svg width="30" height="30" viewBox="0 0 30 30" fill="none" xmlns="http://www.w3.org/2000/svg">
<g clip-path="url(#clip0_60_117)">
<path d="M17.9937 15.415C15.0073 15.415 12.5778 17.8445 12.5778 20.8309C12.5778 23.8172 15.0073 26.2467 17.9937 26.2467C20.98 26.2467 23.4096 23.8172 23.4096 20.8309C23.4096 17.8445 20.9798 15.415 17.9937 15.415ZM17.9937 24.2619C16.1019 24.2619 14.5627 22.7227 14.5627 20.8309C14.5627 20.2453 14.7105 19.6937 14.9702 19.211L17.2919 21.5327C17.478 21.7188 17.7304 21.8234 17.9937 21.8234H21.2778C20.8509 23.2327 19.5404 24.2619 17.9937 24.2619ZM18.4048 19.8385L16.3737 17.8074C16.8565 17.5477 17.4081 17.3999 17.9936 17.3999C19.5405 17.3999 20.851 18.4291 21.2778 19.8385H18.4048Z" fill="#E6E6E6"/>
<path d="M23.8376 2.94888H20.9823C20.6333 2.08545 19.7868 1.47434 18.7998 1.47434H17.2585C16.8758 0.606968 16.0075 0 15.0001 0C13.9926 0 13.1243 0.606968 12.7416 1.47444H11.2003C10.2133 1.47444 9.36674 2.08555 9.01785 2.94898H6.1625C4.79715 2.94898 3.68625 4.05989 3.68625 5.42523V27.5238C3.68625 28.8892 4.79715 30 6.1625 30H23.8376C25.2029 30 26.3139 28.8892 26.3139 27.5238V5.42513C26.3139 4.05978 25.2029 2.94888 23.8376 2.94888ZM10.8317 3.82776C10.8318 3.62463 10.9971 3.45928 11.2003 3.45928H13.5255C14.0736 3.45928 14.5179 3.01494 14.5179 2.46686C14.5179 2.2011 14.7342 1.98484 14.9999 1.98484C15.2657 1.98484 15.482 2.2011 15.482 2.46686C15.482 3.01494 15.9263 3.45928 16.4744 3.45928H18.7996C19.0028 3.45928 19.1681 3.62463 19.1681 3.82776V5.52948C19.1681 5.73261 19.0028 5.89796 18.7996 5.89796H11.2002C10.997 5.89796 10.8317 5.73261 10.8317 5.52948V3.82776ZM23.8376 28.0151H6.1625C5.89149 28.0151 5.67109 27.7947 5.67109 27.5237V5.42513C5.67109 5.15412 5.89149 4.93372 6.1625 4.93372H8.84694V5.52938C8.84694 6.82705 9.90269 7.8827 11.2003 7.8827H18.7997C20.0974 7.8827 21.1531 6.82695 21.1531 5.52938V4.93372H23.8375C24.1085 4.93372 24.3289 5.15412 24.3289 5.42513V27.5237H24.329C24.3289 27.7947 24.1085 28.0151 23.8376 28.0151Z" fill="#E6E6E6"/>
<path d="M7.62765 11.5019H15.0001C15.5481 11.5019 15.9925 11.0576 15.9925 10.5095C15.9925 9.96143 15.5481 9.51709 15.0001 9.51709H7.62765C7.07957 9.51709 6.63523 9.96143 6.63523 10.5095C6.63513 11.0576 7.07947 11.5019 7.62765 11.5019Z" fill="#E6E6E6"/>
<path d="M7.62765 14.4509H12.0512C12.5993 14.4509 13.0436 14.0066 13.0436 13.4585C13.0436 12.9104 12.5993 12.4661 12.0512 12.4661H7.62765C7.07957 12.4661 6.63523 12.9104 6.63523 13.4585C6.63513 14.0066 7.07947 14.4509 7.62765 14.4509Z" fill="#E6E6E6"/>
<path d="M13.0435 16.4075C13.0435 15.8594 12.5992 15.415 12.0511 15.415H7.62765C7.07957 15.415 6.63523 15.8594 6.63523 16.4075C6.63523 16.9555 7.07957 17.3999 7.62765 17.3999H12.0512C12.5993 17.3999 13.0435 16.9555 13.0435 16.4075Z" fill="#E6E6E6"/>
</g>
<defs>
<clipPath id="clip0_60_117">
<rect width="30" height="30" fill="white"/>
</clipPath>
</defs>
</svg>
