<svg width="30" height="26" viewBox="0 0 30 26" fill="none" xmlns="http://www.w3.org/2000/svg">
<path d="M9.5544 7.15894C9.5544 8.63356 10.1309 10.3355 11.0966 11.7117C12.1929 13.2739 13.5791 14.1343 14.9998 14.1343C16.4204 14.1343 17.8066 13.2739 18.9029 11.7116C19.8686 10.3355 20.4451 8.6335 20.4451 7.15894C20.4451 4.15636 18.0024 1.71362 14.9998 1.71362C11.9972 1.71362 9.5544 4.15636 9.5544 7.15894ZM14.9998 2.6593C17.4808 2.6593 19.4994 4.67787 19.4994 7.15894C19.4994 8.42728 18.9743 9.96362 18.1288 11.1685C17.2279 12.4523 16.0874 13.1886 14.9998 13.1886C13.9121 13.1886 12.7716 12.4523 11.8707 11.1685C11.0253 9.96368 10.5001 8.42734 10.5001 7.15894C10.5001 4.67781 12.5186 2.6593 14.9998 2.6593Z" fill="#E6E6E6"/>
<path d="M19.063 13.0784C18.8826 12.9925 18.6675 13.0293 18.5259 13.1705C17.4683 14.2251 16.2489 14.7825 14.9995 14.7825C13.7499 14.7825 12.5308 14.2251 11.4738 13.1706C11.3322 13.0293 11.117 12.9925 10.9366 13.0784C9.34446 13.8363 7.99694 15.022 7.03973 16.5073C6.05648 18.033 5.53674 19.8031 5.53674 21.6262V21.6338C5.53674 21.7672 5.5931 21.8945 5.69189 21.9841C8.2447 24.2993 11.5502 25.5742 14.9994 25.5742C18.4487 25.5742 21.7541 24.2992 24.3069 21.9841C24.4057 21.8945 24.4621 21.7673 24.4621 21.6338V21.6262C24.4621 19.8031 23.9425 18.033 22.9595 16.5073C22.0025 15.0219 20.6551 13.8363 19.063 13.0784ZM14.9995 24.6285C11.856 24.6285 8.84098 23.4923 6.48487 21.4242C6.52162 19.8546 6.98645 18.3358 7.83472 17.0195C8.63798 15.7731 9.74637 14.7611 11.0537 14.0768C12.2355 15.1585 13.5934 15.7282 14.9995 15.7282C16.4054 15.7282 17.7635 15.1586 18.946 14.0768C20.2532 14.7611 21.3615 15.7731 22.1646 17.0195C23.0127 18.3357 23.4774 19.8545 23.5142 21.4242C21.158 23.4923 18.143 24.6285 14.9995 24.6285Z" fill="#E6E6E6"/>
<path d="M28.6903 13.376C27.8562 12.0815 26.6819 11.0482 25.2945 10.3877C25.114 10.3018 24.8988 10.3387 24.7573 10.4798C23.855 11.3795 22.8162 11.8552 21.753 11.8552C21.1766 11.8552 20.6066 11.7161 20.0588 11.442C19.8251 11.3252 19.5412 11.4198 19.4243 11.6533C19.3075 11.8869 19.402 12.1709 19.6356 12.2877C20.316 12.6282 21.0285 12.8008 21.753 12.8008C22.972 12.8008 24.149 12.313 25.1756 11.3863C26.2792 11.9725 27.215 12.8322 27.8954 13.8882C28.617 15.0081 29.0149 16.2993 29.0516 17.6341C27.8837 18.6528 26.4949 19.4277 25.0223 19.8806C24.7728 19.9574 24.6326 20.222 24.7094 20.4716C24.7719 20.6749 24.9591 20.8056 25.1612 20.8056C25.2072 20.8056 25.2541 20.7988 25.3004 20.7846C26.9716 20.2705 28.5431 19.3748 29.8448 18.1942C29.9436 18.1045 30 17.9774 30 17.8439V17.8373C29.9999 16.2483 29.547 14.7056 28.6903 13.376Z" fill="#E6E6E6"/>
<path d="M8.22693 11.2693C8.72687 11.2693 9.22562 11.1474 9.70949 10.9069C9.94332 10.7907 10.0387 10.5069 9.92252 10.2731C9.80633 10.0392 9.5225 9.94386 9.28867 10.0601C8.93675 10.2349 8.57954 10.3236 8.22693 10.3236C7.31019 10.3236 6.34592 9.69855 5.58131 8.60876C4.85951 7.57999 4.41107 6.26903 4.41107 5.18756C4.41107 3.08343 6.12286 1.37164 8.22693 1.37164C9.22001 1.37164 10.1605 1.75129 10.8752 2.44075C11.0631 2.62201 11.3625 2.61677 11.5437 2.42877C11.725 2.24084 11.7197 1.9415 11.5317 1.76025C10.6399 0.899871 9.4662 0.426025 8.22693 0.426025C5.60136 0.426025 3.46539 2.56205 3.46539 5.18762C3.46539 6.47248 3.96704 7.95447 4.80718 9.15195C5.76515 10.5173 6.97964 11.2693 8.22693 11.2693Z" fill="#E6E6E6"/>
<path d="M3.84789 19.4443C2.7917 18.989 1.81728 18.3743 0.948519 17.6158C0.985211 16.2847 1.38195 14.9975 2.10167 13.8808C2.7801 12.8281 3.71317 11.9709 4.81324 11.3863C5.83702 12.3107 7.01073 12.797 8.22643 12.797C8.95693 12.797 9.67451 12.6215 10.3592 12.2752C10.5922 12.1573 10.6856 11.8729 10.5677 11.6398C10.4499 11.4068 10.1654 11.3135 9.93236 11.4313C9.38122 11.71 8.80726 11.8514 8.22643 11.8514C7.16658 11.8514 6.13094 11.3771 5.23154 10.4799C5.08994 10.3387 4.87483 10.3018 4.69433 10.3877C3.31025 11.0466 2.13887 12.0773 1.30674 13.3685C0.451851 14.695 7.62939e-06 16.2339 7.62939e-06 17.8189V17.8254C7.62939e-06 17.9588 0.0563698 18.0861 0.155161 18.1757C1.14049 19.0693 2.25695 19.7883 3.47347 20.3128C3.5345 20.339 3.59798 20.3515 3.66046 20.3515C3.84354 20.3515 4.0178 20.2445 4.0949 20.0657C4.19823 19.8259 4.08765 19.5477 3.84789 19.4443Z" fill="#E6E6E6"/>
<path d="M4.40394 20.1289C4.23555 20.5351 4.68966 20.9379 5.07329 20.7207C5.27743 20.6051 5.36853 20.3464 5.27674 20.129C5.12499 19.7416 4.55941 19.7538 4.40394 20.1289Z" fill="#E6E6E6"/>
<path d="M5.27674 20.129C5.26536 20.1 5.28876 20.1574 5.27674 20.129V20.129Z" fill="#E6E6E6"/>
<path d="M19.1244 2.44075C19.839 1.75129 20.7796 1.37164 21.7726 1.37164C23.8767 1.37164 25.5885 3.08343 25.5885 5.18756C25.5885 6.26903 25.1401 7.57992 24.4182 8.60875C23.6536 9.69855 22.6892 10.3236 21.7726 10.3236C21.42 10.3236 21.0627 10.2349 20.7108 10.06C20.4769 9.94379 20.1931 10.0392 20.0769 10.2731C19.9607 10.5069 20.0561 10.7907 20.2899 10.9069C20.7738 11.1474 21.2726 11.2693 21.7726 11.2693C23.0198 11.2693 24.2343 10.5174 25.1923 9.15195C26.0325 7.95447 26.5341 6.47248 26.5341 5.18762C26.5341 2.56205 24.3981 0.426025 21.7726 0.426025C20.5333 0.426025 19.3597 0.899871 18.4678 1.76025C18.2798 1.9415 18.2745 2.2409 18.4558 2.42877C18.637 2.61671 18.9364 2.62207 19.1244 2.44075Z" fill="#E6E6E6"/>
</svg>
